<svg width="68" height="19" viewBox="0 0 68 19" fill="none" xmlns="http://www.w3.org/2000/svg">
<path d="M2.93246 17.771C2.00868 17.2379 1.28631 16.4844 0.773397 15.508C0.257799 14.5341 0 13.4141 0 12.148C0 10.882 0.257799 9.762 0.773397 8.78555C1.28899 7.81165 2.00868 7.05817 2.93246 6.52509C3.85893 5.99201 4.91429 5.72547 6.10124 5.72547C6.92297 5.72547 7.68563 5.85618 8.39189 6.11247C9.09815 6.37132 9.697 6.73268 10.1857 7.19913V0H14.2971V18.3195H10.6047L10.5536 16.669C10.0649 17.2687 9.43651 17.7351 8.66849 18.0683C7.90046 18.4015 7.0465 18.5681 6.10124 18.5681C4.91429 18.5681 3.85893 18.3015 2.93246 17.7684V17.771ZM4.93577 14.3957C5.50239 14.98 6.24088 15.2696 7.14855 15.2696C8.05621 15.2696 8.79739 14.9826 9.37475 14.4085C9.94942 13.8344 10.2394 13.0809 10.2394 12.1455C10.2394 11.21 9.95211 10.4591 9.37475 9.88502C8.79739 9.31094 8.05621 9.0239 7.14855 9.0239C6.24088 9.0239 5.50239 9.31606 4.93577 9.89784C4.36647 10.4822 4.0845 11.2305 4.0845 12.148C4.0845 13.0656 4.36647 13.8139 4.93577 14.3983" fill="white"/>
<path d="M16.6277 0H20.739V7.32471C21.7353 6.24061 23.0512 5.69984 24.692 5.69984C26.3327 5.69984 27.5412 6.20729 28.4757 7.22476C29.4102 8.24222 29.8775 9.61592 29.8775 11.3484V18.322H25.7661V11.574C25.7661 10.7743 25.562 10.149 25.1512 9.7005C24.7403 9.25199 24.1683 9.02646 23.4352 9.02646C22.6323 9.02646 21.9824 9.28531 21.4829 9.80045C20.9861 10.3182 20.7364 10.9922 20.7364 11.8251V18.322H16.625V0H16.6277Z" fill="white"/>
<path d="M34.2904 17.7581C33.3559 17.2173 32.6281 16.4587 32.1045 15.4848C31.5808 14.5109 31.3203 13.3986 31.3203 12.1479C31.3203 10.8972 31.5808 9.7875 32.1045 8.81105C32.6281 7.83715 33.3559 7.07854 34.2904 6.53777C35.2249 5.99701 36.2937 5.72534 37.4994 5.72534C38.3722 5.72534 39.1751 5.87143 39.9082 6.16359C40.6414 6.45576 41.5007 7.09648 42.0243 7.64494L42.0539 5.97394H45.6147V18.3193H42.0539L42.0834 16.8457C40.9824 17.9964 39.2584 18.5705 37.4967 18.5705C36.291 18.5705 35.2222 18.2988 34.2877 17.7581H34.2904ZM36.2507 14.3956C36.8173 14.9799 37.5558 15.2695 38.4635 15.2695C39.3712 15.2695 40.1123 14.9825 40.6897 14.4084C41.2644 13.8343 41.5544 13.0808 41.5544 12.1454C41.5544 11.2099 41.2671 10.459 40.6897 9.88489C40.1123 9.31081 39.3712 9.02377 38.4635 9.02377C37.5558 9.02377 36.8173 9.31593 36.2507 9.89771C35.6841 10.482 35.3994 11.2304 35.3994 12.1479C35.3994 13.0654 35.6841 13.8138 36.2507 14.3981" fill="white"/>
<path d="M47.946 5.44629H51.7459L51.7674 7.42483C52.2749 6.87381 52.8791 6.45094 53.5881 6.14852C54.2943 5.84866 55.0758 5.70001 55.9324 5.70001C57.5383 5.70001 58.8166 6.19978 59.7672 7.1993C60.7178 8.19882 61.1958 9.58277 61.1958 11.346V18.3196H57.0845V11.5716C57.0845 10.772 56.875 10.1466 56.4561 9.6981C56.0372 9.2496 55.4598 9.02407 54.7267 9.02407C53.9238 9.02407 53.2766 9.28292 52.7878 9.79806C52.2991 10.3158 52.0547 10.9898 52.0547 11.8227V18.3196H47.9434V5.44629H47.946Z" fill="white"/>
<path d="M63.7251 0.620217C64.195 0.207593 64.7885 0 65.5109 0C66.2332 0 66.8267 0.20503 67.2967 0.620217C67.7639 1.03284 68.0002 1.56848 68.0002 2.22202C68.0002 2.87555 67.7693 3.383 67.3101 3.79819C66.8509 4.21081 66.2493 4.41584 65.5109 4.41584C64.7724 4.41584 64.1708 4.21081 63.7116 3.79819C63.2524 3.38556 63.0215 2.86017 63.0215 2.22202C63.0215 1.58386 63.2551 1.0354 63.7251 0.620217Z" fill="white"/>
<path d="M67.4785 5.12866H63.3672V18.3224H67.4785V5.12866Z" fill="white"/>
</svg>
