<svg width="16" height="26" viewBox="0 0 16 26" fill="none" xmlns="http://www.w3.org/2000/svg">
<g id="Group 53266">
<g id="Group">
<g id="Group_2">
<g id="Vector">
<mask id="path-1-inside-1_2892_557" fill="white">
<path d="M9.81484 20.8778C13.4554 16.0433 15.2368 11.7846 15.2368 7.92127C15.2368 3.55351 11.819 0 7.61759 0C3.41721 0 0 3.55351 0 7.92127C0 11.7854 1.78084 16.0441 5.42055 20.8779C2.98756 21.1092 0.636147 21.7587 0.636147 22.9807C0.636187 24.497 4.25514 25.1875 7.61759 25.1875C10.9811 25.1875 14.6008 24.497 14.6008 22.9807C14.6008 21.7587 12.2484 21.1092 9.81484 20.8778ZM0.812541 7.92127C0.812541 4.0014 3.86535 0.8125 7.61759 0.8125C11.3707 0.8125 14.4243 4.0014 14.4243 7.92127C14.4243 12.1095 12.197 16.832 7.61759 22.3477C3.03936 16.833 0.812541 12.1105 0.812541 7.92127ZM7.61759 24.375C3.62611 24.375 1.44865 23.454 1.44865 22.9807C1.44865 22.608 2.97619 21.8578 6.01149 21.6446C6.42415 22.1712 6.85108 22.7023 7.30714 23.2427C7.38429 23.3342 7.49795 23.387 7.61759 23.387C7.73723 23.387 7.85086 23.3342 7.92805 23.2427C8.38415 22.7023 8.81112 22.1711 9.22383 21.6444C12.2601 21.8575 13.7883 22.6079 13.7883 22.9807C13.7883 23.454 11.6103 24.375 7.61759 24.375Z"/>
</mask>
<path d="M9.81484 20.8778C13.4554 16.0433 15.2368 11.7846 15.2368 7.92127C15.2368 3.55351 11.819 0 7.61759 0C3.41721 0 0 3.55351 0 7.92127C0 11.7854 1.78084 16.0441 5.42055 20.8779C2.98756 21.1092 0.636147 21.7587 0.636147 22.9807C0.636187 24.497 4.25514 25.1875 7.61759 25.1875C10.9811 25.1875 14.6008 24.497 14.6008 22.9807C14.6008 21.7587 12.2484 21.1092 9.81484 20.8778ZM0.812541 7.92127C0.812541 4.0014 3.86535 0.8125 7.61759 0.8125C11.3707 0.8125 14.4243 4.0014 14.4243 7.92127C14.4243 12.1095 12.197 16.832 7.61759 22.3477C3.03936 16.833 0.812541 12.1105 0.812541 7.92127ZM7.61759 24.375C3.62611 24.375 1.44865 23.454 1.44865 22.9807C1.44865 22.608 2.97619 21.8578 6.01149 21.6446C6.42415 22.1712 6.85108 22.7023 7.30714 23.2427C7.38429 23.3342 7.49795 23.387 7.61759 23.387C7.73723 23.387 7.85086 23.3342 7.92805 23.2427C8.38415 22.7023 8.81112 22.1711 9.22383 21.6444C12.2601 21.8575 13.7883 22.6079 13.7883 22.9807C13.7883 23.454 11.6103 24.375 7.61759 24.375Z" fill="#FFB300"/>
<path d="M9.81484 20.8778L-0.170633 13.3585L-13.6111 31.2071L8.63177 33.3217L9.81484 20.8778ZM5.42055 20.8779L6.60367 33.3218L28.8455 31.2071L15.4063 13.3589L5.42055 20.8779ZM0.636147 22.9807H-11.8639V22.981L0.636147 22.9807ZM14.6008 22.9807L2.10079 22.9803V22.9807H14.6008ZM7.61759 22.3477L-2.00002 30.3321L7.6172 41.9165L17.2349 30.3325L7.61759 22.3477ZM6.01149 21.6446L15.8505 13.9346L11.7565 8.71005L5.13531 9.1753L6.01149 21.6446ZM7.30714 23.2427L16.8614 15.1826L16.8602 15.1812L7.30714 23.2427ZM7.92805 23.2427L17.4802 31.3054L17.4811 31.3044L7.92805 23.2427ZM9.22383 21.6444L10.099 9.17511L3.47853 8.71041L-0.615099 13.9343L9.22383 21.6444ZM19.8003 28.3972C24.2102 22.5409 27.7368 15.6471 27.7368 7.92127H2.73677C2.73677 7.92208 2.70057 9.54563 -0.170633 13.3585L19.8003 28.3972ZM27.7368 7.92127C27.7368 -2.88732 19.1763 -12.5 7.61759 -12.5V12.5C4.46157 12.5 2.73677 9.99434 2.73677 7.92127H27.7368ZM7.61759 -12.5C-3.94246 -12.5 -12.5 -2.88494 -12.5 7.92127H12.5C12.5 9.99196 10.7769 12.5 7.61759 12.5V-12.5ZM-12.5 7.92127C-12.5 15.6467 -8.97513 22.5401 -4.56519 28.3969L15.4063 13.3589C12.5368 9.54802 12.5 7.92412 12.5 7.92127H-12.5ZM4.23744 8.43399C2.52648 8.59667 0.0422869 8.96005 -2.3823 9.89522C-3.56076 10.3497 -5.52846 11.2387 -7.39377 12.9444C-9.42244 14.7995 -11.8639 18.1912 -11.8639 22.9807H13.1361C13.1361 27.1591 10.9887 30.0114 9.47691 31.3938C8.12852 32.6268 6.90074 33.1099 6.61426 33.2204C5.97363 33.4674 5.88164 33.3904 6.60367 33.3218L4.23744 8.43399ZM-11.8639 22.981C-11.8637 29.0248 -8.0918 32.661 -5.97847 34.1602C-3.87877 35.6498 -1.72912 36.3553 -0.429688 36.7104C2.33632 37.4664 5.28147 37.6875 7.61759 37.6875V12.6875C6.59127 12.6875 6.04571 12.5633 6.16162 12.595C6.2415 12.6168 6.47752 12.6847 6.82109 12.8298C7.14411 12.9662 7.75606 13.2517 8.48681 13.7701C9.8165 14.7135 13.136 17.6947 13.1361 22.9803L-11.8639 22.981ZM7.61759 37.6875C9.95401 37.6875 12.8993 37.4665 15.6654 36.7106C16.9648 36.3556 19.1144 35.6503 21.2142 34.161C23.3272 32.6623 27.1008 29.026 27.1008 22.9807H2.10079C2.10079 17.6936 5.42188 14.7122 6.75113 13.7694C7.48184 13.2511 8.09371 12.9657 8.41658 12.8294C8.76002 12.6844 8.99588 12.6166 9.07561 12.5948C9.19092 12.5633 8.64465 12.6875 7.61759 12.6875V37.6875ZM27.1008 22.9811C27.1009 18.1896 24.6576 14.7974 22.6289 12.9429C20.7634 11.2377 18.7956 10.349 17.6174 9.89471C15.193 8.95992 12.7089 8.59661 10.9979 8.43395L8.63177 33.3217C9.35433 33.3904 9.26323 33.4675 8.62343 33.2209C8.33746 33.1106 7.10993 32.6279 5.76156 31.3954C4.24995 30.0136 2.10065 27.1608 2.10079 22.9803L27.1008 22.9811ZM13.3125 7.92127C13.3125 10.3852 11.2775 13.3125 7.61759 13.3125V-11.6875C-3.5468 -11.6875 -11.6875 -2.38235 -11.6875 7.92127H13.3125ZM7.61759 13.3125C3.96135 13.3125 1.92427 10.3881 1.92427 7.92127H26.9243C26.9243 -2.38533 18.78 -11.6875 7.61759 -11.6875V13.3125ZM1.92427 7.92127C1.92427 7.76328 1.97043 8.16443 1.43315 9.30328C0.881538 10.4725 -0.156918 12.1433 -1.9997 14.3629L17.2349 30.3325C22.4715 24.0253 26.9243 16.477 26.9243 7.92127H1.92427ZM17.2352 14.3632C15.3932 12.1445 14.3552 10.4741 13.8038 9.30502C13.2667 8.16641 13.3125 7.76461 13.3125 7.92127H-11.6875C-11.6875 16.4769 -7.23621 24.0249 -2.00002 30.3321L17.2352 14.3632ZM7.61759 11.875C6.51384 11.875 6.12574 11.7403 6.37764 11.8102C6.43502 11.8261 7.11521 12.0072 8.07174 12.5559C8.51517 12.8103 9.52475 13.4286 10.588 14.5415C11.4157 15.4077 13.9486 18.3123 13.9486 22.9807H-11.0514C-11.0514 27.7675 -8.45032 30.8043 -7.48803 31.8115C-6.29007 33.0654 -5.07919 33.8332 -4.36925 34.2405C-2.87972 35.0951 -1.40569 35.5952 -0.305019 35.9005C2.03348 36.5492 4.72986 36.875 7.61759 36.875V11.875ZM13.9486 22.9807C13.9486 27.1411 11.9203 29.8815 11.0786 30.8803C10.0891 32.0544 9.11297 32.7515 8.62996 33.0709C7.62027 33.7387 6.83059 34.0139 6.64277 34.0782C6.13944 34.2507 6.16711 34.1644 6.88766 34.1138L5.13531 9.1753C2.82056 9.33795 0.56681 9.73345 -1.45911 10.4275C-2.40823 10.7526 -3.7695 11.2986 -5.16045 12.2185C-5.8341 12.664 -6.95329 13.4825 -8.03817 14.7698C-8.97527 15.8817 -11.0514 18.7272 -11.0514 22.9807H13.9486ZM-3.82752 29.3545C-3.35035 29.9635 -2.82539 30.6176 -2.24594 31.3043L16.8602 15.1812C16.5276 14.787 16.1987 14.3789 15.8505 13.9346L-3.82752 29.3545ZM-2.24709 31.3029C0.207305 34.2123 3.81801 35.887 7.61759 35.887V10.887C11.1779 10.887 14.5613 12.4561 16.8614 15.1826L-2.24709 31.3029ZM7.61759 35.887C11.4191 35.887 15.0277 34.211 17.4802 31.3054L-1.62409 15.1801C0.674019 12.4574 4.0554 10.887 7.61759 10.887V35.887ZM17.4811 31.3044C18.0606 30.6177 18.5856 29.9635 19.0628 29.3545L-0.615099 13.9343C-0.963317 14.3787 -1.29226 14.7869 -1.62497 15.1811L17.4811 31.3044ZM8.34861 34.1138C9.06961 34.1644 9.09771 34.2507 8.59471 34.0784C8.40705 34.0141 7.61752 33.739 6.60792 33.0715C6.12496 32.7522 5.14876 32.0552 4.15916 30.8812C3.31747 29.8826 1.28833 27.1419 1.28833 22.9807H26.2883C26.2883 18.7263 24.2114 15.8805 23.2743 14.7687C22.1893 13.4815 21.07 12.6631 20.3963 12.2177C19.0053 11.298 17.6439 10.752 16.6947 10.427C14.6685 9.73305 12.4144 9.33762 10.099 9.17511L8.34861 34.1138ZM1.28833 22.9807C1.28833 18.3113 3.82222 15.4065 4.64982 14.5405C5.71323 13.4277 6.72288 12.8096 7.16622 12.5553C8.12263 12.0067 8.80262 11.8258 8.85971 11.81C9.11107 11.7402 8.72225 11.875 7.61759 11.875V36.875C10.5056 36.875 13.2022 36.5492 15.5407 35.9007C16.6414 35.5954 18.1155 35.0955 19.605 34.2411C20.315 33.8339 21.5259 33.0662 22.7241 31.8125C23.6864 30.8055 26.2883 27.7683 26.2883 22.9807H1.28833Z" fill="#FFB300" mask="url(#path-1-inside-1_2892_557)"/>
</g>
</g>
</g>
<g id="Group_3">
<g id="Group_4">
<g id="Group_5">
<g id="Vector_2">
<mask id="path-3-inside-2_2892_557" fill="white">
<path d="M11.4744 7.53984C11.4744 5.58013 9.8943 4 7.94341 4C5.99253 4 4.4124 5.58013 4.4124 7.53101C4.4124 7.53101 4.4124 7.53101 4.4124 7.53984C3.62675 7.58398 3 8.23721 3 9.03169V9.20824C3 10.038 3.67089 10.7089 4.50068 10.7089H4.58013L5.20688 11.7064C5.64826 12.4126 6.3986 12.8275 7.22838 12.8275H7.35197C7.43142 13.1277 7.70507 13.3572 8.03169 13.3572C8.4201 13.3572 8.73789 13.0394 8.73789 12.651C8.73789 12.2626 8.4201 11.9448 8.03169 11.9448C7.70507 11.9448 7.43142 12.1743 7.35197 12.4744H7.22838C6.52218 12.4744 5.87777 12.1125 5.50702 11.5122L4.99502 10.7089H5.11861C5.31281 10.7089 5.47171 10.55 5.47171 10.3558V7.88411C5.47171 7.68991 5.31281 7.53101 5.11861 7.53101H4.76551C4.76551 5.77433 6.18674 4.3531 7.94341 4.3531C9.70009 4.3531 11.1213 5.77433 11.1213 7.53101H10.7682C10.574 7.53101 10.4151 7.68991 10.4151 7.88411V10.3558C10.4151 10.55 10.574 10.7089 10.7682 10.7089H11.3861C12.2159 10.7089 12.8868 10.038 12.8868 9.20824V9.03169C12.8868 8.23721 12.2601 7.58398 11.4744 7.53984ZM8.03169 12.2979C8.2259 12.2979 8.38479 12.4568 8.38479 12.651C8.38479 12.8452 8.2259 13.0041 8.03169 13.0041C7.83748 13.0041 7.67859 12.8452 7.67859 12.651C7.67859 12.4568 7.83748 12.2979 8.03169 12.2979ZM5.11861 7.88411V10.3558H4.50068C3.8651 10.3558 3.3531 9.84382 3.3531 9.20824V9.03169C3.3531 8.39611 3.8651 7.88411 4.50068 7.88411H5.11861ZM12.5337 9.20824C12.5337 9.84382 12.0217 10.3558 11.3861 10.3558H10.7682V7.88411H11.3861C12.0217 7.88411 12.5337 8.39611 12.5337 9.03169V9.20824Z"/>
</mask>
<path d="M11.4744 7.53984C11.4744 5.58013 9.8943 4 7.94341 4C5.99253 4 4.4124 5.58013 4.4124 7.53101C4.4124 7.53101 4.4124 7.53101 4.4124 7.53984C3.62675 7.58398 3 8.23721 3 9.03169V9.20824C3 10.038 3.67089 10.7089 4.50068 10.7089H4.58013L5.20688 11.7064C5.64826 12.4126 6.3986 12.8275 7.22838 12.8275H7.35197C7.43142 13.1277 7.70507 13.3572 8.03169 13.3572C8.4201 13.3572 8.73789 13.0394 8.73789 12.651C8.73789 12.2626 8.4201 11.9448 8.03169 11.9448C7.70507 11.9448 7.43142 12.1743 7.35197 12.4744H7.22838C6.52218 12.4744 5.87777 12.1125 5.50702 11.5122L4.99502 10.7089H5.11861C5.31281 10.7089 5.47171 10.55 5.47171 10.3558V7.88411C5.47171 7.68991 5.31281 7.53101 5.11861 7.53101H4.76551C4.76551 5.77433 6.18674 4.3531 7.94341 4.3531C9.70009 4.3531 11.1213 5.77433 11.1213 7.53101H10.7682C10.574 7.53101 10.4151 7.68991 10.4151 7.88411V10.3558C10.4151 10.55 10.574 10.7089 10.7682 10.7089H11.3861C12.2159 10.7089 12.8868 10.038 12.8868 9.20824V9.03169C12.8868 8.23721 12.2601 7.58398 11.4744 7.53984ZM8.03169 12.2979C8.2259 12.2979 8.38479 12.4568 8.38479 12.651C8.38479 12.8452 8.2259 13.0041 8.03169 13.0041C7.83748 13.0041 7.67859 12.8452 7.67859 12.651C7.67859 12.4568 7.83748 12.2979 8.03169 12.2979ZM5.11861 7.88411V10.3558H4.50068C3.8651 10.3558 3.3531 9.84382 3.3531 9.20824V9.03169C3.3531 8.39611 3.8651 7.88411 4.50068 7.88411H5.11861ZM12.5337 9.20824C12.5337 9.84382 12.0217 10.3558 11.3861 10.3558H10.7682V7.88411H11.3861C12.0217 7.88411 12.5337 8.39611 12.5337 9.03169V9.20824Z" fill="#FFB300"/>
<path d="M11.4744 7.53984H9.68871V9.22805L11.3743 9.32274L11.4744 7.53984ZM4.4124 7.53984L4.51257 9.32274L6.19812 9.22805V7.53984H4.4124ZM4.58013 10.7089L6.09215 9.75889L5.56708 8.92321H4.58013V10.7089ZM5.20688 11.7064L6.72117 10.76L6.7189 10.7564L5.20688 11.7064ZM7.35197 12.8275L9.07823 12.3706L8.7265 11.0418H7.35197V12.8275ZM7.35197 12.4744V14.2601H8.7265L9.07823 12.9314L7.35197 12.4744ZM5.50702 11.5122L7.0263 10.5738L7.01966 10.5631L7.01287 10.5524L5.50702 11.5122ZM4.99502 10.7089V8.92321H1.73929L3.48916 11.6687L4.99502 10.7089ZM4.76551 7.53101H2.97979V9.31672H4.76551V7.53101ZM11.1213 7.53101V9.31672H12.907V7.53101H11.1213ZM5.11861 7.88411H6.90432V6.0984H5.11861V7.88411ZM5.11861 10.3558V12.1415H6.90432V10.3558H5.11861ZM10.7682 10.3558H8.98251V12.1415H10.7682V10.3558ZM10.7682 7.88411V6.0984H8.98251V7.88411H10.7682ZM13.2601 7.53984C13.2601 4.59681 10.8834 2.21429 7.94341 2.21429V5.78571C8.90517 5.78571 9.68871 6.56344 9.68871 7.53984H13.2601ZM7.94341 2.21429C5.00631 2.21429 2.62669 4.5939 2.62669 7.53101H6.19812C6.19812 6.56635 6.97875 5.78571 7.94341 5.78571V2.21429ZM4.4124 7.53101C6.19812 7.53101 4.4124 7.53101 2.62669 7.53101C2.62669 7.53101 2.62669 7.53101 2.62669 7.53101V7.53101C2.62669 7.53101 2.62669 7.53101 2.62669 7.53101C2.62669 7.53101 2.62669 7.53101 2.62669 7.53101C2.62669 7.53101 2.62669 7.53101 2.62669 7.53101C2.62669 7.53101 2.62669 7.53101 2.62669 7.53101C2.62669 7.53101 2.62669 7.53101 2.62669 7.53101C2.62669 7.53101 2.62669 7.53101 2.62669 7.53101C2.62669 7.53101 2.62669 7.53101 2.62669 7.53101C2.62669 7.53101 2.62669 7.53101 2.62669 7.53101V7.53101V7.53101V7.53101V7.53101C2.62669 7.53101 2.62669 7.53101 2.62669 7.53101C2.62669 7.53101 2.62669 7.53101 2.62669 7.53101C2.62669 7.53101 2.62669 7.53101 2.62669 7.53101V7.53101C2.62669 7.53102 2.62669 7.53102 2.62669 7.53102V7.53102C2.62669 7.53102 2.62669 7.53102 2.62669 7.53102V7.53102C2.62669 7.53102 2.62669 7.53102 2.62669 7.53102C2.62669 7.53102 2.62669 7.53102 2.62669 7.53102C2.62669 7.53102 2.62669 7.53102 2.62669 7.53102C2.62669 7.53102 2.62669 7.53102 2.62669 7.53102C2.62669 7.53102 2.62669 7.53102 2.62669 7.53102C2.62669 7.53102 2.62669 7.53102 2.62669 7.53102C2.62669 7.53102 2.62669 7.53102 2.62669 7.53102C2.62669 7.53102 2.62669 7.53102 2.62669 7.53102C2.62669 7.53102 2.62669 7.53102 2.62669 7.53102C2.62669 7.53102 2.62669 7.53102 2.62669 7.53102C2.62669 7.53102 2.62669 7.53102 2.62669 7.53102C2.62669 7.53102 2.62669 7.53102 2.62669 7.53102C2.62669 7.53102 2.62669 7.53102 2.62669 7.53102C2.62669 7.53102 2.62669 7.53102 2.62669 7.53102C2.62669 7.53102 2.62669 7.53102 2.62669 7.53102C2.62669 7.53102 2.62669 7.53103 2.62669 7.53103C2.62669 7.53103 2.62669 7.53103 2.62669 7.53103C2.62669 7.53103 2.62669 7.53103 2.62669 7.53103C2.62669 7.53103 2.62669 7.53103 2.62669 7.53103C2.62669 7.53103 2.62669 7.53103 2.62669 7.53103C2.62669 7.53103 2.62669 7.53103 2.62669 7.53103C2.62669 7.53103 2.62669 7.53103 2.62669 7.53103C2.62669 7.53103 2.62669 7.53103 2.62669 7.53103C2.62669 7.53103 2.62669 7.53103 2.62669 7.53103C2.62669 7.53103 2.62669 7.53103 2.62669 7.53103C2.62669 7.53103 2.62669 7.53103 2.62669 7.53103C2.62669 7.53103 2.62669 7.53103 2.62669 7.53103C2.62669 7.53104 2.62669 7.53104 2.62669 7.53104C2.62669 7.53104 2.62669 7.53104 2.62669 7.53104C2.62669 7.53104 2.62669 7.53104 2.62669 7.53104C2.62669 7.53104 2.62669 7.53104 2.62669 7.53104C2.62669 7.53104 2.62669 7.53104 2.62669 7.53104C2.62669 7.53104 2.62669 7.53104 2.62669 7.53104C2.62669 7.53104 2.62669 7.53104 2.62669 7.53104C2.62669 7.53104 2.62669 7.53104 2.62669 7.53104C2.62669 7.53104 2.62669 7.53104 2.62669 7.53105C2.62669 7.53105 2.62669 7.53105 2.62669 7.53105C2.62669 7.53105 2.62669 7.53105 2.62669 7.53105C2.62669 7.53105 2.62669 7.53105 2.62669 7.53105C2.62669 7.53105 2.62669 7.53105 2.62669 7.53105C2.62669 7.53105 2.62669 7.53105 2.62669 7.53105C2.62669 7.53105 2.62669 7.53105 2.62669 7.53105C2.62669 7.53105 2.62669 7.53105 2.62669 7.53106C2.62669 7.53106 2.62669 7.53106 2.62669 7.53106C2.62669 7.53106 2.62669 7.53106 2.62669 7.53106C2.62669 7.53106 2.62669 7.53106 2.62669 7.53106C2.62669 7.53106 2.62669 7.53106 2.62669 7.53106C2.62669 7.53106 2.62669 7.53106 2.62669 7.53106C2.62669 7.53106 2.62669 7.53106 2.62669 7.53106C2.62669 7.53107 2.62669 7.53107 2.62669 7.53107C2.62669 7.53107 2.62669 7.53107 2.62669 7.53107C2.62669 7.53107 2.62669 7.53107 2.62669 7.53107C2.62669 7.53107 2.62669 7.53107 2.62669 7.53107C2.62669 7.53107 2.62669 7.53107 2.62669 7.53107C2.62669 7.53108 2.62669 7.53108 2.62669 7.53108C2.62669 7.53108 2.62669 7.53108 2.62669 7.53108C2.62669 7.53108 2.62669 7.53108 2.62669 7.53108C2.62669 7.53108 2.62669 7.53108 2.62669 7.53108C2.62669 7.53108 2.62669 7.53108 2.62669 7.53108C2.62669 7.53109 2.62669 7.53109 2.62669 7.53109C2.62669 7.53109 2.62669 7.53109 2.62669 7.53109C2.62669 7.53109 2.62669 7.53109 2.62669 7.53109C2.62669 7.53109 2.62669 7.53109 2.62669 7.53109C2.62669 7.53109 2.62669 7.53109 2.62669 7.5311C2.62669 7.5311 2.62669 7.5311 2.62669 7.5311C2.62669 7.5311 2.62669 7.5311 2.62669 7.5311C2.62669 7.5311 2.62669 7.5311 2.62669 7.5311C2.62669 7.5311 2.62669 7.5311 2.62669 7.53111C2.62669 7.53111 2.62669 7.53111 2.62669 7.53111C2.62669 7.53111 2.62669 7.53111 2.62669 7.53111C2.62669 7.53111 2.62669 7.53111 2.62669 7.53111C2.62669 7.53111 2.62669 7.53111 2.62669 7.53112C2.62669 7.53112 2.62669 7.53112 2.62669 7.53112C2.62669 7.53112 2.62669 7.53112 2.62669 7.53112C2.62669 7.53112 2.62669 7.53112 2.62669 7.53112C2.62669 7.53113 2.62669 7.53113 2.62669 7.53113C2.62669 7.53113 2.62669 7.53113 2.62669 7.53113C2.62669 7.53113 2.62669 7.53113 2.62669 7.53113C2.62669 7.53113 2.62669 7.53113 2.62669 7.53114C2.62669 7.53114 2.62669 7.53114 2.62669 7.53114C2.62669 7.53114 2.62669 7.53114 2.62669 7.53114C2.62669 7.53114 2.62669 7.53114 2.62669 7.53115C2.62669 7.53115 2.62669 7.53115 2.62669 7.53115C2.62669 7.53115 2.62669 7.53115 2.62669 7.53115C2.62669 7.53115 2.62669 7.53115 2.62669 7.53115C2.62669 7.53116 2.62669 7.53116 2.62669 7.53116C2.62669 7.53116 2.62669 7.53116 2.62669 7.53116C2.62669 7.53116 2.62669 7.53116 2.62669 7.53117C2.62669 7.53117 2.62669 7.53117 2.62669 7.53117C2.62669 7.53117 2.62669 7.53117 2.62669 7.53117C2.62669 7.53117 2.62669 7.53117 2.62669 7.53118C2.62669 7.53118 2.62669 7.53118 2.62669 7.53118C2.62669 7.53118 2.62669 7.53118 2.62669 7.53118C2.62669 7.53118 2.62669 7.53119 2.62669 7.53119C2.62669 7.53119 2.62669 7.53119 2.62669 7.53119C2.62669 7.53119 2.62669 7.53119 2.62669 7.53119C2.62669 7.5312 2.62669 7.5312 2.62669 7.5312C2.62669 7.5312 2.62669 7.5312 2.62669 7.5312C2.62669 7.5312 2.62669 7.53121 2.62669 7.53121C2.62669 7.53121 2.62669 7.53121 2.62669 7.53121C2.62669 7.53121 2.62669 7.53121 2.62669 7.53122C2.62669 7.53122 2.62669 7.53122 2.62669 7.53122C2.62669 7.53122 2.62669 7.53122 2.62669 7.53122C2.62669 7.53122 2.62669 7.53123 2.62669 7.53123C2.62669 7.53123 2.62669 7.53123 2.62669 7.53123C2.62669 7.53123 2.62669 7.53124 2.62669 7.53124C2.62669 7.53124 2.62669 7.53124 2.62669 7.53124C2.62669 7.53124 2.62669 7.53124 2.62669 7.53125C2.62669 7.53125 2.62669 7.53125 2.62669 7.53125C2.62669 7.53125 2.62669 7.53125 2.62669 7.53126C2.62669 7.53126 2.62669 7.53126 2.62669 7.53126C2.62669 7.53126 2.62669 7.53126 2.62669 7.53127C2.62669 7.53127 2.62669 7.53127 2.62669 7.53127C2.62669 7.53127 2.62669 7.53127 2.62669 7.53127C2.62669 7.53128 2.62669 7.53128 2.62669 7.53128C2.62669 7.53128 2.62669 7.53128 2.62669 7.53128C2.62669 7.53129 2.62669 7.53129 2.62669 7.53129C2.62669 7.53129 2.62669 7.53129 2.62669 7.5313C2.62669 7.5313 2.62669 7.5313 2.62669 7.5313C2.62669 7.5313 2.62669 7.5313 2.62669 7.53131C2.62669 7.53131 2.62669 7.53131 2.62669 7.53131C2.62669 7.53131 2.62669 7.53131 2.62669 7.53132C2.62669 7.53132 2.62669 7.53132 2.62669 7.53132C2.62669 7.53132 2.62669 7.53133 2.62669 7.53133C2.62669 7.53133 2.62669 7.53133 2.62669 7.53133C2.62669 7.53134 2.62669 7.53134 2.62669 7.53134C2.62669 7.53134 2.62669 7.53134 2.62669 7.53135C2.62669 7.53135 2.62669 7.53135 2.62669 7.53135C2.62669 7.53135 2.62669 7.53135 2.62669 7.53136C2.62669 7.53136 2.62669 7.53136 2.62669 7.53136C2.62669 7.53136 2.62669 7.53137 2.62669 7.53137C2.62669 7.53137 2.62669 7.53137 2.62669 7.53138C2.62669 7.53138 2.62669 7.53138 2.62669 7.53138C2.62669 7.53138 2.62669 7.53139 2.62669 7.53139C2.62669 7.53139 2.62669 7.53139 2.62669 7.53139C2.62669 7.5314 2.62669 7.5314 2.62669 7.5314C2.62669 7.5314 2.62669 7.5314 2.62669 7.53141C2.62669 7.53141 2.62669 7.53141 2.62669 7.53141C2.62669 7.53142 2.62669 7.53142 2.62669 7.53142C2.62669 7.53142 2.62669 7.53142 2.62669 7.53143C2.62669 7.53143 2.62669 7.53143 2.62669 7.53143C2.62669 7.53144 2.62669 7.53144 2.62669 7.53144C2.62669 7.53144 2.62669 7.53145 2.62669 7.53145C2.62669 7.53145 2.62669 7.53145 2.62669 7.53145C2.62669 7.53146 2.62669 7.53146 2.62669 7.53146C2.62669 7.53146 2.62669 7.53147 2.62669 7.53147C2.62669 7.53147 2.62669 7.53147 2.62669 7.53148C2.62669 7.53148 2.62669 7.53148 2.62669 7.53148C2.62669 7.53149 2.62669 7.53149 2.62669 7.53149C2.62669 7.53149 2.62669 7.5315 2.62669 7.5315C2.62669 7.5315 2.62669 7.5315 2.62669 7.53151C2.62669 7.53151 2.62669 7.53151 2.62669 7.53151C2.62669 7.53152 2.62669 7.53152 2.62669 7.53152C2.62669 7.53152 2.62669 7.53153 2.62669 7.53153C2.62669 7.53153 2.62669 7.53153 2.62669 7.53154C2.62669 7.53154 2.62669 7.53154 2.62669 7.53154C2.62669 7.53155 2.62669 7.53155 2.62669 7.53155C2.62669 7.53156 2.62669 7.53156 2.62669 7.53156C2.62669 7.53156 2.62669 7.53157 2.62669 7.53157C2.62669 7.53157 2.62669 7.53157 2.62669 7.53158C2.62669 7.53158 2.62669 7.53158 2.62669 7.53159C2.62669 7.53159 2.62669 7.53159 2.62669 7.53159C2.62669 7.5316 2.62669 7.5316 2.62669 7.5316C2.62669 7.53161 2.62669 7.53161 2.62669 7.53161C2.62669 7.53161 2.62669 7.53162 2.62669 7.53162C2.62669 7.53162 2.62669 7.53163 2.62669 7.53163C2.62669 7.53163 2.62669 7.53163 2.62669 7.53164C2.62669 7.53164 2.62669 7.53164 2.62669 7.53165C2.62669 7.53165 2.62669 7.53165 2.62669 7.53166C2.62669 7.53166 2.62669 7.53166 2.62669 7.53166C2.62669 7.53167 2.62669 7.53167 2.62669 7.53167C2.62669 7.53168 2.62669 7.53168 2.62669 7.53168C2.62669 7.53169 2.62669 7.53169 2.62669 7.53169C2.62669 7.53169 2.62669 7.5317 2.62669 7.5317C2.62669 7.5317 2.62669 7.53171 2.62669 7.53171C2.62669 7.53171 2.62669 7.53172 2.62669 7.53172C2.62669 7.53172 2.62669 7.53173 2.62669 7.53173C2.62669 7.53173 2.62669 7.53174 2.62669 7.53174C2.62669 7.53174 2.62669 7.53175 2.62669 7.53175C2.62669 7.53175 2.62669 7.53176 2.62669 7.53176C2.62669 7.53176 2.62669 7.53177 2.62669 7.53177C2.62669 7.53177 2.62669 7.53178 2.62669 7.53178C2.62669 7.53178 2.62669 7.53179 2.62669 7.53179C2.62669 7.53179 2.62669 7.5318 2.62669 7.5318C2.62669 7.5318 2.62669 7.53181 2.62669 7.53181C2.62669 7.53181 2.62669 7.53182 2.62669 7.53182C2.62669 7.53182 2.62669 7.53183 2.62669 7.53183C2.62669 7.53184 2.62669 7.53184 2.62669 7.53184C2.62669 7.53185 2.62669 7.53185 2.62669 7.53185C2.62669 7.53186 2.62669 7.53186 2.62669 7.53186C2.62669 7.53187 2.62669 7.53187 2.62669 7.53187C2.62669 7.53188 2.62669 7.53188 2.62669 7.53189C2.62669 7.53189 2.62669 7.53189 2.62669 7.5319C2.62669 7.5319 2.62669 7.5319 2.62669 7.53191C2.62669 7.53191 2.62669 7.53192 2.62669 7.53192C2.62669 7.53192 2.62669 7.53193 2.62669 7.53193C2.62669 7.53193 2.62669 7.53194 2.62669 7.53194C2.62669 7.53195 2.62669 7.53195 2.62669 7.53195C2.62669 7.53196 2.62669 7.53196 2.62669 7.53197C2.62669 7.53197 2.62669 7.53197 2.62669 7.53198C2.62669 7.53198 2.62669 7.53199 2.62669 7.53199C2.62669 7.53199 2.62669 7.532 2.62669 7.532C2.62669 7.53201 2.62669 7.53201 2.62669 7.53201C2.62669 7.53202 2.62669 7.53202 2.62669 7.53203C2.62669 7.53203 2.62669 7.53203 2.62669 7.53204C2.62669 7.53204 2.62669 7.53205 2.62669 7.53205C2.62669 7.53205 2.62669 7.53206 2.62669 7.53206C2.62669 7.53207 2.62669 7.53207 2.62669 7.53208C2.62669 7.53208 2.62669 7.53208 2.62669 7.53209C2.62669 7.53209 2.62669 7.5321 2.62669 7.5321C2.62669 7.53211 2.62669 7.53211 2.62669 7.53211C2.62669 7.53212 2.62669 7.53212 2.62669 7.53213C2.62669 7.53213 2.62669 7.53214 2.62669 7.53214C2.62669 7.53214 2.62669 7.53215 2.62669 7.53215C2.62669 7.53216 2.62669 7.53216 2.62669 7.53217C2.62669 7.53217 2.62669 7.53218 2.62669 7.53218C2.62669 7.53218 2.62669 7.53219 2.62669 7.53219C2.62669 7.5322 2.62669 7.5322 2.62669 7.53221C2.62669 7.53221 2.62669 7.53222 2.62669 7.53222C2.62669 7.53223 2.62669 7.53223 2.62669 7.53223C2.62669 7.53224 2.62669 7.53224 2.62669 7.53225C2.62669 7.53225 2.62669 7.53226 2.62669 7.53226C2.62669 7.53227 2.62669 7.53227 2.62669 7.53228C2.62669 7.53228 2.62669 7.53229 2.62669 7.53229C2.62669 7.5323 2.62669 7.5323 2.62669 7.53231C2.62669 7.53231 2.62669 7.53231 2.62669 7.53232C2.62669 7.53232 2.62669 7.53233 2.62669 7.53233C2.62669 7.53234 2.62669 7.53234 2.62669 7.53235C2.62669 7.53235 2.62669 7.53236 2.62669 7.53236C2.62669 7.53237 2.62669 7.53237 2.62669 7.53238C2.62669 7.53238 2.62669 7.53239 2.62669 7.53239C2.62669 7.5324 2.62669 7.5324 2.62669 7.53241C2.62669 7.53241 2.62669 7.53242 2.62669 7.53242C2.62669 7.53243 2.62669 7.53243 2.62669 7.53244C2.62669 7.53244 2.62669 7.53245 2.62669 7.53245C2.62669 7.53246 2.62669 7.53246 2.62669 7.53247C2.62669 7.53247 2.62669 7.53248 2.62669 7.53249C2.62669 7.53249 2.62669 7.5325 2.62669 7.5325C2.62669 7.53251 2.62669 7.53251 2.62669 7.53252C2.62669 7.53252 2.62669 7.53253 2.62669 7.53253C2.62669 7.53254 2.62669 7.53254 2.62669 7.53255C2.62669 7.53255 2.62669 7.53256 2.62669 7.53257C2.62669 7.53257 2.62669 7.53258 2.62669 7.53258C2.62669 7.53259 2.62669 7.53259 2.62669 7.5326C2.62669 7.5326 2.62669 7.53261 2.62669 7.53261C2.62669 7.53262 2.62669 7.53263 2.62669 7.53263C2.62669 7.53264 2.62669 7.53264 2.62669 7.53265C2.62669 7.53265 2.62669 7.53266 2.62669 7.53266C2.62669 7.53267 2.62669 7.53268 2.62669 7.53268C2.62669 7.53269 2.62669 7.53269 2.62669 7.5327C2.62669 7.5327 2.62669 7.53271 2.62669 7.53272C2.62669 7.53272 2.62669 7.53273 2.62669 7.53273C2.62669 7.53274 2.62669 7.53275 2.62669 7.53275C2.62669 7.53276 2.62669 7.53276 2.62669 7.53277C2.62669 7.53277 2.62669 7.53278 2.62669 7.53279C2.62669 7.53279 2.62669 7.5328 2.62669 7.5328C2.62669 7.53281 2.62669 7.53282 2.62669 7.53282C2.62669 7.53283 2.62669 7.53283 2.62669 7.53284C2.62669 7.53285 2.62669 7.53285 2.62669 7.53286C2.62669 7.53286 2.62669 7.53287 2.62669 7.53288C2.62669 7.53288 2.62669 7.53289 2.62669 7.53289C2.62669 7.5329 2.62669 7.53291 2.62669 7.53291C2.62669 7.53292 2.62669 7.53293 2.62669 7.53293C2.62669 7.53294 2.62669 7.53294 2.62669 7.53295C2.62669 7.53296 2.62669 7.53296 2.62669 7.53297C2.62669 7.53298 2.62669 7.53298 2.62669 7.53299C2.62669 7.53299 2.62669 7.533 2.62669 7.53301C2.62669 7.53301 2.62669 7.53302 2.62669 7.53303C2.62669 7.53303 2.62669 7.53304 2.62669 7.53305C2.62669 7.53305 2.62669 7.53306 2.62669 7.53307C2.62669 7.53307 2.62669 7.53308 2.62669 7.53309C2.62669 7.53309 2.62669 7.5331 2.62669 7.53311C2.62669 7.53311 2.62669 7.53312 2.62669 7.53313C2.62669 7.53313 2.62669 7.53314 2.62669 7.53315C2.62669 7.53315 2.62669 7.53316 2.62669 7.53317C2.62669 7.53317 2.62669 7.53318 2.62669 7.53319C2.62669 7.53319 2.62669 7.5332 2.62669 7.53321C2.62669 7.53321 2.62669 7.53322 2.62669 7.53323C2.62669 7.53323 2.62669 7.53324 2.62669 7.53325C2.62669 7.53325 2.62669 7.53326 2.62669 7.53327C2.62669 7.53328 2.62669 7.53328 2.62669 7.53329C2.62669 7.5333 2.62669 7.5333 2.62669 7.53331C2.62669 7.53332 2.62669 7.53332 2.62669 7.53333C2.62669 7.53334 2.62669 7.53335 2.62669 7.53335C2.62669 7.53336 2.62669 7.53337 2.62669 7.53337C2.62669 7.53338 2.62669 7.53339 2.62669 7.5334C2.62669 7.5334 2.62669 7.53341 2.62669 7.53342C2.62669 7.53342 2.62669 7.53343 2.62669 7.53344C2.62669 7.53345 2.62669 7.53345 2.62669 7.53346C2.62669 7.53347 2.62669 7.53348 2.62669 7.53348C2.62669 7.53349 2.62669 7.5335 2.62669 7.53351C2.62669 7.53351 2.62669 7.53352 2.62669 7.53353C2.62669 7.53354 2.62669 7.53354 2.62669 7.53355C2.62669 7.53356 2.62669 7.53357 2.62669 7.53357C2.62669 7.53358 2.62669 7.53359 2.62669 7.5336C2.62669 7.5336 2.62669 7.53361 2.62669 7.53362C2.62669 7.53363 2.62669 7.53363 2.62669 7.53364C2.62669 7.53365 2.62669 7.53366 2.62669 7.53366C2.62669 7.53367 2.62669 7.53368 2.62669 7.53369C2.62669 7.5337 2.62669 7.5337 2.62669 7.53371C2.62669 7.53372 2.62669 7.53373 2.62669 7.53373C2.62669 7.53374 2.62669 7.53375 2.62669 7.53376C2.62669 7.53377 2.62669 7.53377 2.62669 7.53378C2.62669 7.53379 2.62669 7.5338 2.62669 7.53381C2.62669 7.53381 2.62669 7.53382 2.62669 7.53383C2.62669 7.53384 2.62669 7.53385 2.62669 7.53385C2.62669 7.53386 2.62669 7.53387 2.62669 7.53388C2.62669 7.53389 2.62669 7.5339 2.62669 7.5339C2.62669 7.53391 2.62669 7.53392 2.62669 7.53393C2.62669 7.53394 2.62669 7.53394 2.62669 7.53395C2.62669 7.53396 2.62669 7.53397 2.62669 7.53398C2.62669 7.53399 2.62669 7.53399 2.62669 7.534C2.62669 7.53401 2.62669 7.53402 2.62669 7.53403C2.62669 7.53404 2.62669 7.53404 2.62669 7.53405C2.62669 7.53406 2.62669 7.53407 2.62669 7.53408C2.62669 7.53409 2.62669 7.5341 2.62669 7.5341C2.62669 7.53411 2.62669 7.53412 2.62669 7.53413C2.62669 7.53414 2.62669 7.53415 2.62669 7.53416C2.62669 7.53416 2.62669 7.53417 2.62669 7.53418C2.62669 7.53419 2.62669 7.5342 2.62669 7.53421C2.62669 7.53422 2.62669 7.53423 2.62669 7.53424C2.62669 7.53424 2.62669 7.53425 2.62669 7.53426C2.62669 7.53427 2.62669 7.53428 2.62669 7.53429C2.62669 7.5343 2.62669 7.53431 2.62669 7.53431C2.62669 7.53432 2.62669 7.53433 2.62669 7.53434C2.62669 7.53435 2.62669 7.53436 2.62669 7.53437C2.62669 7.53438 2.62669 7.53439 2.62669 7.5344C2.62669 7.53441 2.62669 7.53441 2.62669 7.53442C2.62669 7.53443 2.62669 7.53444 2.62669 7.53445C2.62669 7.53446 2.62669 7.53447 2.62669 7.53448C2.62669 7.53449 2.62669 7.5345 2.62669 7.53451C2.62669 7.53452 2.62669 7.53453 2.62669 7.53453C2.62669 7.53454 2.62669 7.53455 2.62669 7.53456C2.62669 7.53457 2.62669 7.53458 2.62669 7.53459C2.62669 7.5346 2.62669 7.53461 2.62669 7.53462C2.62669 7.53463 2.62669 7.53464 2.62669 7.53465C2.62669 7.53466 2.62669 7.53467 2.62669 7.53468C2.62669 7.53469 2.62669 7.5347 2.62669 7.53471C2.62669 7.53472 2.62669 7.53472 2.62669 7.53473C2.62669 7.53474 2.62669 7.53475 2.62669 7.53476C2.62669 7.53477 2.62669 7.53478 2.62669 7.53479C2.62669 7.5348 2.62669 7.53481 2.62669 7.53482C2.62669 7.53483 2.62669 7.53484 2.62669 7.53485C2.62669 7.53486 2.62669 7.53487 2.62669 7.53488C2.62669 7.53489 2.62669 7.5349 2.62669 7.53491C2.62669 7.53492 2.62669 7.53493 2.62669 7.53494C2.62669 7.53495 2.62669 7.53496 2.62669 7.53497C2.62669 7.53498 2.62669 7.53499 2.62669 7.535C2.62669 7.53501 2.62669 7.53502 2.62669 7.53503C2.62669 7.53504 2.62669 7.53505 2.62669 7.53506C2.62669 7.53507 2.62669 7.53508 2.62669 7.53509C2.62669 7.5351 2.62669 7.53512 2.62669 7.53513C2.62669 7.53514 2.62669 7.53515 2.62669 7.53516C2.62669 7.53517 2.62669 7.53518 2.62669 7.53519C2.62669 7.5352 2.62669 7.53521 2.62669 7.53522C2.62669 7.53523 2.62669 7.53524 2.62669 7.53525C2.62669 7.53526 2.62669 7.53527 2.62669 7.53528C2.62669 7.53529 2.62669 7.5353 2.62669 7.53532C2.62669 7.53533 2.62669 7.53534 2.62669 7.53535C2.62669 7.53536 2.62669 7.53537 2.62669 7.53538C2.62669 7.53539 2.62669 7.5354 2.62669 7.53541C2.62669 7.53542 2.62669 7.53543 2.62669 7.53544C2.62669 7.53546 2.62669 7.53547 2.62669 7.53548C2.62669 7.53549 2.62669 7.5355 2.62669 7.53551C2.62669 7.53552 2.62669 7.53553 2.62669 7.53554C2.62669 7.53555 2.62669 7.53557 2.62669 7.53558C2.62669 7.53559 2.62669 7.5356 2.62669 7.53561C2.62669 7.53562 2.62669 7.53563 2.62669 7.53564C2.62669 7.53565 2.62669 7.53567 2.62669 7.53568C2.62669 7.53569 2.62669 7.5357 2.62669 7.53571C2.62669 7.53572 2.62669 7.53573 2.62669 7.53575C2.62669 7.53576 2.62669 7.53577 2.62669 7.53578C2.62669 7.53579 2.62669 7.5358 2.62669 7.53581C2.62669 7.53583 2.62669 7.53584 2.62669 7.53585C2.62669 7.53586 2.62669 7.53587 2.62669 7.53588C2.62669 7.53589 2.62669 7.53591 2.62669 7.53592C2.62669 7.53593 2.62669 7.53594 2.62669 7.53595C2.62669 7.53596 2.62669 7.53598 2.62669 7.53599C2.62669 7.536 2.62669 7.53601 2.62669 7.53602C2.62669 7.53604 2.62669 7.53605 2.62669 7.53606C2.62669 7.53607 2.62669 7.53608 2.62669 7.53609C2.62669 7.53611 2.62669 7.53612 2.62669 7.53613C2.62669 7.53614 2.62669 7.53615 2.62669 7.53617C2.62669 7.53618 2.62669 7.53619 2.62669 7.5362C2.62669 7.53622 2.62669 7.53623 2.62669 7.53624C2.62669 7.53625 2.62669 7.53626 2.62669 7.53628C2.62669 7.53629 2.62669 7.5363 2.62669 7.53631C2.62669 7.53632 2.62669 7.53634 2.62669 7.53635C2.62669 7.53636 2.62669 7.53637 2.62669 7.53639C2.62669 7.5364 2.62669 7.53641 2.62669 7.53642C2.62669 7.53644 2.62669 7.53645 2.62669 7.53646C2.62669 7.53647 2.62669 7.53649 2.62669 7.5365C2.62669 7.53651 2.62669 7.53652 2.62669 7.53654C2.62669 7.53655 2.62669 7.53656 2.62669 7.53657C2.62669 7.53659 2.62669 7.5366 2.62669 7.53661C2.62669 7.53663 2.62669 7.53664 2.62669 7.53665C2.62669 7.53666 2.62669 7.53668 2.62669 7.53669C2.62669 7.5367 2.62669 7.53672 2.62669 7.53673C2.62669 7.53674 2.62669 7.53675 2.62669 7.53677C2.62669 7.53678 2.62669 7.53679 2.62669 7.53681C2.62669 7.53682 2.62669 7.53683 2.62669 7.53685C2.62669 7.53686 2.62669 7.53687 2.62669 7.53688C2.62669 7.5369 2.62669 7.53691 2.62669 7.53692C2.62669 7.53694 2.62669 7.53695 2.62669 7.53696C2.62669 7.53698 2.62669 7.53699 2.62669 7.537C2.62669 7.53702 2.62669 7.53703 2.62669 7.53704C2.62669 7.53706 2.62669 7.53707 2.62669 7.53708C2.62669 7.5371 2.62669 7.53711 2.62669 7.53712C2.62669 7.53714 2.62669 7.53715 2.62669 7.53716C2.62669 7.53718 2.62669 7.53719 2.62669 7.53721C2.62669 7.53722 2.62669 7.53723 2.62669 7.53725C2.62669 7.53726 2.62669 7.53727 2.62669 7.53729C2.62669 7.5373 2.62669 7.53732 2.62669 7.53733C2.62669 7.53734 2.62669 7.53736 2.62669 7.53737C2.62669 7.53738 2.62669 7.5374 2.62669 7.53741C2.62669 7.53743 2.62669 7.53744 2.62669 7.53745C2.62669 7.53747 2.62669 7.53748 2.62669 7.5375C2.62669 7.53751 2.62669 7.53752 2.62669 7.53754C2.62669 7.53755 2.62669 7.53757 2.62669 7.53758C2.62669 7.53759 2.62669 7.53761 2.62669 7.53762C2.62669 7.53764 2.62669 7.53765 2.62669 7.53767C2.62669 7.53768 2.62669 7.53769 2.62669 7.53771C2.62669 7.53772 2.62669 7.53774 2.62669 7.53775C2.62669 7.53777 2.62669 7.53778 2.62669 7.5378C2.62669 7.53781 2.62669 7.53782 2.62669 7.53784C2.62669 7.53785 2.62669 7.53787 2.62669 7.53788C2.62669 7.5379 2.62669 7.53791 2.62669 7.53793C2.62669 7.53794 2.62669 7.53796 2.62669 7.53797C2.62669 7.53799 2.62669 7.538 2.62669 7.53801C2.62669 7.53803 2.62669 7.53804 2.62669 7.53806C2.62669 7.53807 2.62669 7.53809 2.62669 7.5381C2.62669 7.53812 2.62669 7.53813 2.62669 7.53815C2.62669 7.53816 2.62669 7.53818 2.62669 7.53819C2.62669 7.53821 2.62669 7.53822 2.62669 7.53824C2.62669 7.53825 2.62669 7.53827 2.62669 7.53828C2.62669 7.5383 2.62669 7.53831 2.62669 7.53833C2.62669 7.53834 2.62669 7.53836 2.62669 7.53838C2.62669 7.53839 2.62669 7.53841 2.62669 7.53842C2.62669 7.53844 2.62669 7.53845 2.62669 7.53847C2.62669 7.53848 2.62669 7.5385 2.62669 7.53851C2.62669 7.53853 2.62669 7.53854 2.62669 7.53856C2.62669 7.53858 2.62669 7.53859 2.62669 7.53861C2.62669 7.53862 2.62669 7.53864 2.62669 7.53865C2.62669 7.53867 2.62669 7.53869 2.62669 7.5387C2.62669 7.53872 2.62669 7.53873 2.62669 7.53875C2.62669 7.53876 2.62669 7.53878 2.62669 7.5388C2.62669 7.53881 2.62669 7.53883 2.62669 7.53884C2.62669 7.53886 2.62669 7.53888 2.62669 7.53889C2.62669 7.53891 2.62669 7.53892 2.62669 7.53894C2.62669 7.53896 2.62669 7.53897 2.62669 7.53899C2.62669 7.539 2.62669 7.53902 2.62669 7.53904C2.62669 7.53905 2.62669 7.53907 2.62669 7.53908C2.62669 7.5391 2.62669 7.53912 2.62669 7.53913C2.62669 7.53915 2.62669 7.53917 2.62669 7.53918C2.62669 7.5392 2.62669 7.53922 2.62669 7.53923C2.62669 7.53925 2.62669 7.53926 2.62669 7.53928C2.62669 7.5393 2.62669 7.53931 2.62669 7.53933C2.62669 7.53935 2.62669 7.53936 2.62669 7.53938C2.62669 7.5394 2.62669 7.53941 2.62669 7.53943C2.62669 7.53945 2.62669 7.53946 2.62669 7.53948C2.62669 7.5395 2.62669 7.53951 2.62669 7.53953C2.62669 7.53955 2.62669 7.53956 2.62669 7.53958C2.62669 7.5396 2.62669 7.53962 2.62669 7.53963C2.62669 7.53965 2.62669 7.53967 2.62669 7.53968C2.62669 7.5397 2.62669 7.53972 2.62669 7.53973C2.62669 7.53975 2.62669 7.53977 2.62669 7.53979C2.62669 7.5398 2.62669 7.53982 2.62669 7.53984H6.19812C6.19812 7.53982 6.19812 7.5398 6.19812 7.53979C6.19812 7.53977 6.19812 7.53975 6.19812 7.53973C6.19812 7.53972 6.19812 7.5397 6.19812 7.53968C6.19812 7.53967 6.19812 7.53965 6.19812 7.53963C6.19812 7.53962 6.19812 7.5396 6.19812 7.53958C6.19812 7.53956 6.19812 7.53955 6.19812 7.53953C6.19812 7.53951 6.19812 7.5395 6.19812 7.53948C6.19812 7.53946 6.19812 7.53945 6.19812 7.53943C6.19812 7.53941 6.19812 7.5394 6.19812 7.53938C6.19812 7.53936 6.19812 7.53935 6.19812 7.53933C6.19812 7.53931 6.19812 7.5393 6.19812 7.53928C6.19812 7.53926 6.19812 7.53925 6.19812 7.53923C6.19812 7.53922 6.19812 7.5392 6.19812 7.53918C6.19812 7.53917 6.19812 7.53915 6.19812 7.53913C6.19812 7.53912 6.19812 7.5391 6.19812 7.53908C6.19812 7.53907 6.19812 7.53905 6.19812 7.53904C6.19812 7.53902 6.19812 7.539 6.19812 7.53899C6.19812 7.53897 6.19812 7.53896 6.19812 7.53894C6.19812 7.53892 6.19812 7.53891 6.19812 7.53889C6.19812 7.53888 6.19812 7.53886 6.19812 7.53884C6.19812 7.53883 6.19812 7.53881 6.19812 7.5388C6.19812 7.53878 6.19812 7.53876 6.19812 7.53875C6.19812 7.53873 6.19812 7.53872 6.19812 7.5387C6.19812 7.53869 6.19812 7.53867 6.19812 7.53865C6.19812 7.53864 6.19812 7.53862 6.19812 7.53861C6.19812 7.53859 6.19812 7.53858 6.19812 7.53856C6.19812 7.53854 6.19812 7.53853 6.19812 7.53851C6.19812 7.5385 6.19812 7.53848 6.19812 7.53847C6.19812 7.53845 6.19812 7.53844 6.19812 7.53842C6.19812 7.53841 6.19812 7.53839 6.19812 7.53838C6.19812 7.53836 6.19812 7.53834 6.19812 7.53833C6.19812 7.53831 6.19812 7.5383 6.19812 7.53828C6.19812 7.53827 6.19812 7.53825 6.19812 7.53824C6.19812 7.53822 6.19812 7.53821 6.19812 7.53819C6.19812 7.53818 6.19812 7.53816 6.19812 7.53815C6.19812 7.53813 6.19812 7.53812 6.19812 7.5381C6.19812 7.53809 6.19812 7.53807 6.19812 7.53806C6.19812 7.53804 6.19812 7.53803 6.19812 7.53801C6.19812 7.538 6.19812 7.53799 6.19812 7.53797C6.19812 7.53796 6.19812 7.53794 6.19812 7.53793C6.19812 7.53791 6.19812 7.5379 6.19812 7.53788C6.19812 7.53787 6.19812 7.53785 6.19812 7.53784C6.19812 7.53782 6.19812 7.53781 6.19812 7.5378C6.19812 7.53778 6.19812 7.53777 6.19812 7.53775C6.19812 7.53774 6.19812 7.53772 6.19812 7.53771C6.19812 7.53769 6.19812 7.53768 6.19812 7.53767C6.19812 7.53765 6.19812 7.53764 6.19812 7.53762C6.19812 7.53761 6.19812 7.53759 6.19812 7.53758C6.19812 7.53757 6.19812 7.53755 6.19812 7.53754C6.19812 7.53752 6.19812 7.53751 6.19812 7.5375C6.19812 7.53748 6.19812 7.53747 6.19812 7.53745C6.19812 7.53744 6.19812 7.53743 6.19812 7.53741C6.19812 7.5374 6.19812 7.53738 6.19812 7.53737C6.19812 7.53736 6.19812 7.53734 6.19812 7.53733C6.19812 7.53732 6.19812 7.5373 6.19812 7.53729C6.19812 7.53727 6.19812 7.53726 6.19812 7.53725C6.19812 7.53723 6.19812 7.53722 6.19812 7.53721C6.19812 7.53719 6.19812 7.53718 6.19812 7.53716C6.19812 7.53715 6.19812 7.53714 6.19812 7.53712C6.19812 7.53711 6.19812 7.5371 6.19812 7.53708C6.19812 7.53707 6.19812 7.53706 6.19812 7.53704C6.19812 7.53703 6.19812 7.53702 6.19812 7.537C6.19812 7.53699 6.19812 7.53698 6.19812 7.53696C6.19812 7.53695 6.19812 7.53694 6.19812 7.53692C6.19812 7.53691 6.19812 7.5369 6.19812 7.53688C6.19812 7.53687 6.19812 7.53686 6.19812 7.53685C6.19812 7.53683 6.19812 7.53682 6.19812 7.53681C6.19812 7.53679 6.19812 7.53678 6.19812 7.53677C6.19812 7.53675 6.19812 7.53674 6.19812 7.53673C6.19812 7.53672 6.19812 7.5367 6.19812 7.53669C6.19812 7.53668 6.19812 7.53666 6.19812 7.53665C6.19812 7.53664 6.19812 7.53663 6.19812 7.53661C6.19812 7.5366 6.19812 7.53659 6.19812 7.53657C6.19812 7.53656 6.19812 7.53655 6.19812 7.53654C6.19812 7.53652 6.19812 7.53651 6.19812 7.5365C6.19812 7.53649 6.19812 7.53647 6.19812 7.53646C6.19812 7.53645 6.19812 7.53644 6.19812 7.53642C6.19812 7.53641 6.19812 7.5364 6.19812 7.53639C6.19812 7.53637 6.19812 7.53636 6.19812 7.53635C6.19812 7.53634 6.19812 7.53632 6.19812 7.53631C6.19812 7.5363 6.19812 7.53629 6.19812 7.53628C6.19812 7.53626 6.19812 7.53625 6.19812 7.53624C6.19812 7.53623 6.19812 7.53622 6.19812 7.5362C6.19812 7.53619 6.19812 7.53618 6.19812 7.53617C6.19812 7.53615 6.19812 7.53614 6.19812 7.53613C6.19812 7.53612 6.19812 7.53611 6.19812 7.53609C6.19812 7.53608 6.19812 7.53607 6.19812 7.53606C6.19812 7.53605 6.19812 7.53604 6.19812 7.53602C6.19812 7.53601 6.19812 7.536 6.19812 7.53599C6.19812 7.53598 6.19812 7.53596 6.19812 7.53595C6.19812 7.53594 6.19812 7.53593 6.19812 7.53592C6.19812 7.53591 6.19812 7.53589 6.19812 7.53588C6.19812 7.53587 6.19812 7.53586 6.19812 7.53585C6.19812 7.53584 6.19812 7.53583 6.19812 7.53581C6.19812 7.5358 6.19812 7.53579 6.19812 7.53578C6.19812 7.53577 6.19812 7.53576 6.19812 7.53575C6.19812 7.53573 6.19812 7.53572 6.19812 7.53571C6.19812 7.5357 6.19812 7.53569 6.19812 7.53568C6.19812 7.53567 6.19812 7.53565 6.19812 7.53564C6.19812 7.53563 6.19812 7.53562 6.19812 7.53561C6.19812 7.5356 6.19812 7.53559 6.19812 7.53558C6.19812 7.53557 6.19812 7.53555 6.19812 7.53554C6.19812 7.53553 6.19812 7.53552 6.19812 7.53551C6.19812 7.5355 6.19812 7.53549 6.19812 7.53548C6.19812 7.53547 6.19812 7.53546 6.19812 7.53544C6.19812 7.53543 6.19812 7.53542 6.19812 7.53541C6.19812 7.5354 6.19812 7.53539 6.19812 7.53538C6.19812 7.53537 6.19812 7.53536 6.19812 7.53535C6.19812 7.53534 6.19812 7.53533 6.19812 7.53532C6.19812 7.5353 6.19812 7.53529 6.19812 7.53528C6.19812 7.53527 6.19812 7.53526 6.19812 7.53525C6.19812 7.53524 6.19812 7.53523 6.19812 7.53522C6.19812 7.53521 6.19812 7.5352 6.19812 7.53519C6.19812 7.53518 6.19812 7.53517 6.19812 7.53516C6.19812 7.53515 6.19812 7.53514 6.19812 7.53513C6.19812 7.53512 6.19812 7.5351 6.19812 7.53509C6.19812 7.53508 6.19812 7.53507 6.19812 7.53506C6.19812 7.53505 6.19812 7.53504 6.19812 7.53503C6.19812 7.53502 6.19812 7.53501 6.19812 7.535C6.19812 7.53499 6.19812 7.53498 6.19812 7.53497C6.19812 7.53496 6.19812 7.53495 6.19812 7.53494C6.19812 7.53493 6.19812 7.53492 6.19812 7.53491C6.19812 7.5349 6.19812 7.53489 6.19812 7.53488C6.19812 7.53487 6.19812 7.53486 6.19812 7.53485C6.19812 7.53484 6.19812 7.53483 6.19812 7.53482C6.19812 7.53481 6.19812 7.5348 6.19812 7.53479C6.19812 7.53478 6.19812 7.53477 6.19812 7.53476C6.19812 7.53475 6.19812 7.53474 6.19812 7.53473C6.19812 7.53472 6.19812 7.53472 6.19812 7.53471C6.19812 7.5347 6.19812 7.53469 6.19812 7.53468C6.19812 7.53467 6.19812 7.53466 6.19812 7.53465C6.19812 7.53464 6.19812 7.53463 6.19812 7.53462C6.19812 7.53461 6.19812 7.5346 6.19812 7.53459C6.19812 7.53458 6.19812 7.53457 6.19812 7.53456C6.19812 7.53455 6.19812 7.53454 6.19812 7.53453C6.19812 7.53453 6.19812 7.53452 6.19812 7.53451C6.19812 7.5345 6.19812 7.53449 6.19812 7.53448C6.19812 7.53447 6.19812 7.53446 6.19812 7.53445C6.19812 7.53444 6.19812 7.53443 6.19812 7.53442C6.19812 7.53441 6.19812 7.53441 6.19812 7.5344C6.19812 7.53439 6.19812 7.53438 6.19812 7.53437C6.19812 7.53436 6.19812 7.53435 6.19812 7.53434C6.19812 7.53433 6.19812 7.53432 6.19812 7.53431C6.19812 7.53431 6.19812 7.5343 6.19812 7.53429C6.19812 7.53428 6.19812 7.53427 6.19812 7.53426C6.19812 7.53425 6.19812 7.53424 6.19812 7.53424C6.19812 7.53423 6.19812 7.53422 6.19812 7.53421C6.19812 7.5342 6.19812 7.53419 6.19812 7.53418C6.19812 7.53417 6.19812 7.53416 6.19812 7.53416C6.19812 7.53415 6.19812 7.53414 6.19812 7.53413C6.19812 7.53412 6.19812 7.53411 6.19812 7.5341C6.19812 7.5341 6.19812 7.53409 6.19812 7.53408C6.19812 7.53407 6.19812 7.53406 6.19812 7.53405C6.19812 7.53404 6.19812 7.53404 6.19812 7.53403C6.19812 7.53402 6.19812 7.53401 6.19812 7.534C6.19812 7.53399 6.19812 7.53399 6.19812 7.53398C6.19812 7.53397 6.19812 7.53396 6.19812 7.53395C6.19812 7.53394 6.19812 7.53394 6.19812 7.53393C6.19812 7.53392 6.19812 7.53391 6.19812 7.5339C6.19812 7.5339 6.19812 7.53389 6.19812 7.53388C6.19812 7.53387 6.19812 7.53386 6.19812 7.53385C6.19812 7.53385 6.19812 7.53384 6.19812 7.53383C6.19812 7.53382 6.19812 7.53381 6.19812 7.53381C6.19812 7.5338 6.19812 7.53379 6.19812 7.53378C6.19812 7.53377 6.19812 7.53377 6.19812 7.53376C6.19812 7.53375 6.19812 7.53374 6.19812 7.53373C6.19812 7.53373 6.19812 7.53372 6.19812 7.53371C6.19812 7.5337 6.19812 7.5337 6.19812 7.53369C6.19812 7.53368 6.19812 7.53367 6.19812 7.53366C6.19812 7.53366 6.19812 7.53365 6.19812 7.53364C6.19812 7.53363 6.19812 7.53363 6.19812 7.53362C6.19812 7.53361 6.19812 7.5336 6.19812 7.5336C6.19812 7.53359 6.19812 7.53358 6.19812 7.53357C6.19812 7.53357 6.19812 7.53356 6.19812 7.53355C6.19812 7.53354 6.19812 7.53354 6.19812 7.53353C6.19812 7.53352 6.19812 7.53351 6.19812 7.53351C6.19812 7.5335 6.19812 7.53349 6.19812 7.53348C6.19812 7.53348 6.19812 7.53347 6.19812 7.53346C6.19812 7.53345 6.19812 7.53345 6.19812 7.53344C6.19812 7.53343 6.19812 7.53342 6.19812 7.53342C6.19812 7.53341 6.19812 7.5334 6.19812 7.5334C6.19812 7.53339 6.19812 7.53338 6.19812 7.53337C6.19812 7.53337 6.19812 7.53336 6.19812 7.53335C6.19812 7.53335 6.19812 7.53334 6.19812 7.53333C6.19812 7.53332 6.19812 7.53332 6.19812 7.53331C6.19812 7.5333 6.19812 7.5333 6.19812 7.53329C6.19812 7.53328 6.19812 7.53328 6.19812 7.53327C6.19812 7.53326 6.19812 7.53325 6.19812 7.53325C6.19812 7.53324 6.19812 7.53323 6.19812 7.53323C6.19812 7.53322 6.19812 7.53321 6.19812 7.53321C6.19812 7.5332 6.19812 7.53319 6.19812 7.53319C6.19812 7.53318 6.19812 7.53317 6.19812 7.53317C6.19812 7.53316 6.19812 7.53315 6.19812 7.53315C6.19812 7.53314 6.19812 7.53313 6.19812 7.53313C6.19812 7.53312 6.19812 7.53311 6.19812 7.53311C6.19812 7.5331 6.19812 7.53309 6.19812 7.53309C6.19812 7.53308 6.19812 7.53307 6.19812 7.53307C6.19812 7.53306 6.19812 7.53305 6.19812 7.53305C6.19812 7.53304 6.19812 7.53303 6.19812 7.53303C6.19812 7.53302 6.19812 7.53301 6.19812 7.53301C6.19812 7.533 6.19812 7.53299 6.19812 7.53299C6.19812 7.53298 6.19812 7.53298 6.19812 7.53297C6.19812 7.53296 6.19812 7.53296 6.19812 7.53295C6.19812 7.53294 6.19812 7.53294 6.19812 7.53293C6.19812 7.53293 6.19812 7.53292 6.19812 7.53291C6.19812 7.53291 6.19812 7.5329 6.19812 7.53289C6.19812 7.53289 6.19812 7.53288 6.19812 7.53288C6.19812 7.53287 6.19812 7.53286 6.19812 7.53286C6.19812 7.53285 6.19812 7.53285 6.19812 7.53284C6.19812 7.53283 6.19812 7.53283 6.19812 7.53282C6.19812 7.53282 6.19812 7.53281 6.19812 7.5328C6.19812 7.5328 6.19812 7.53279 6.19812 7.53279C6.19812 7.53278 6.19812 7.53277 6.19812 7.53277C6.19812 7.53276 6.19812 7.53276 6.19812 7.53275C6.19812 7.53275 6.19812 7.53274 6.19812 7.53273C6.19812 7.53273 6.19812 7.53272 6.19812 7.53272C6.19812 7.53271 6.19812 7.5327 6.19812 7.5327C6.19812 7.53269 6.19812 7.53269 6.19812 7.53268C6.19812 7.53268 6.19812 7.53267 6.19812 7.53266C6.19812 7.53266 6.19812 7.53265 6.19812 7.53265C6.19812 7.53264 6.19812 7.53264 6.19812 7.53263C6.19812 7.53263 6.19812 7.53262 6.19812 7.53261C6.19812 7.53261 6.19812 7.5326 6.19812 7.5326C6.19812 7.53259 6.19812 7.53259 6.19812 7.53258C6.19812 7.53258 6.19812 7.53257 6.19812 7.53257C6.19812 7.53256 6.19812 7.53255 6.19812 7.53255C6.19812 7.53254 6.19812 7.53254 6.19812 7.53253C6.19812 7.53253 6.19812 7.53252 6.19812 7.53252C6.19812 7.53251 6.19812 7.53251 6.19812 7.5325C6.19812 7.5325 6.19812 7.53249 6.19812 7.53249C6.19812 7.53248 6.19812 7.53247 6.19812 7.53247C6.19812 7.53246 6.19812 7.53246 6.19812 7.53245C6.19812 7.53245 6.19812 7.53244 6.19812 7.53244C6.19812 7.53243 6.19812 7.53243 6.19812 7.53242C6.19812 7.53242 6.19812 7.53241 6.19812 7.53241C6.19812 7.5324 6.19812 7.5324 6.19812 7.53239C6.19812 7.53239 6.19812 7.53238 6.19812 7.53238C6.19812 7.53237 6.19812 7.53237 6.19812 7.53236C6.19812 7.53236 6.19812 7.53235 6.19812 7.53235C6.19812 7.53234 6.19812 7.53234 6.19812 7.53233C6.19812 7.53233 6.19812 7.53232 6.19812 7.53232C6.19812 7.53231 6.19812 7.53231 6.19812 7.53231C6.19812 7.5323 6.19812 7.5323 6.19812 7.53229C6.19812 7.53229 6.19812 7.53228 6.19812 7.53228C6.19812 7.53227 6.19812 7.53227 6.19812 7.53226C6.19812 7.53226 6.19812 7.53225 6.19812 7.53225C6.19812 7.53224 6.19812 7.53224 6.19812 7.53223C6.19812 7.53223 6.19812 7.53223 6.19812 7.53222C6.19812 7.53222 6.19812 7.53221 6.19812 7.53221C6.19812 7.5322 6.19812 7.5322 6.19812 7.53219C6.19812 7.53219 6.19812 7.53218 6.19812 7.53218C6.19812 7.53218 6.19812 7.53217 6.19812 7.53217C6.19812 7.53216 6.19812 7.53216 6.19812 7.53215C6.19812 7.53215 6.19812 7.53214 6.19812 7.53214C6.19812 7.53214 6.19812 7.53213 6.19812 7.53213C6.19812 7.53212 6.19812 7.53212 6.19812 7.53211C6.19812 7.53211 6.19812 7.53211 6.19812 7.5321C6.19812 7.5321 6.19812 7.53209 6.19812 7.53209C6.19812 7.53208 6.19812 7.53208 6.19812 7.53208C6.19812 7.53207 6.19812 7.53207 6.19812 7.53206C6.19812 7.53206 6.19812 7.53205 6.19812 7.53205C6.19812 7.53205 6.19812 7.53204 6.19812 7.53204C6.19812 7.53203 6.19812 7.53203 6.19812 7.53203C6.19812 7.53202 6.19812 7.53202 6.19812 7.53201C6.19812 7.53201 6.19812 7.53201 6.19812 7.532C6.19812 7.532 6.19812 7.53199 6.19812 7.53199C6.19812 7.53199 6.19812 7.53198 6.19812 7.53198C6.19812 7.53197 6.19812 7.53197 6.19812 7.53197C6.19812 7.53196 6.19812 7.53196 6.19812 7.53195C6.19812 7.53195 6.19812 7.53195 6.19812 7.53194C6.19812 7.53194 6.19812 7.53193 6.19812 7.53193C6.19812 7.53193 6.19812 7.53192 6.19812 7.53192C6.19812 7.53192 6.19812 7.53191 6.19812 7.53191C6.19812 7.5319 6.19812 7.5319 6.19812 7.5319C6.19812 7.53189 6.19812 7.53189 6.19812 7.53189C6.19812 7.53188 6.19812 7.53188 6.19812 7.53187C6.19812 7.53187 6.19812 7.53187 6.19812 7.53186C6.19812 7.53186 6.19812 7.53186 6.19812 7.53185C6.19812 7.53185 6.19812 7.53185 6.19812 7.53184C6.19812 7.53184 6.19812 7.53184 6.19812 7.53183C6.19812 7.53183 6.19812 7.53182 6.19812 7.53182C6.19812 7.53182 6.19812 7.53181 6.19812 7.53181C6.19812 7.53181 6.19812 7.5318 6.19812 7.5318C6.19812 7.5318 6.19812 7.53179 6.19812 7.53179C6.19812 7.53179 6.19812 7.53178 6.19812 7.53178C6.19812 7.53178 6.19812 7.53177 6.19812 7.53177C6.19812 7.53177 6.19812 7.53176 6.19812 7.53176C6.19812 7.53176 6.19812 7.53175 6.19812 7.53175C6.19812 7.53175 6.19812 7.53174 6.19812 7.53174C6.19812 7.53174 6.19812 7.53173 6.19812 7.53173C6.19812 7.53173 6.19812 7.53172 6.19812 7.53172C6.19812 7.53172 6.19812 7.53171 6.19812 7.53171C6.19812 7.53171 6.19812 7.5317 6.19812 7.5317C6.19812 7.5317 6.19812 7.53169 6.19812 7.53169C6.19812 7.53169 6.19812 7.53169 6.19812 7.53168C6.19812 7.53168 6.19812 7.53168 6.19812 7.53167C6.19812 7.53167 6.19812 7.53167 6.19812 7.53166C6.19812 7.53166 6.19812 7.53166 6.19812 7.53166C6.19812 7.53165 6.19812 7.53165 6.19812 7.53165C6.19812 7.53164 6.19812 7.53164 6.19812 7.53164C6.19812 7.53163 6.19812 7.53163 6.19812 7.53163C6.19812 7.53163 6.19812 7.53162 6.19812 7.53162C6.19812 7.53162 6.19812 7.53161 6.19812 7.53161C6.19812 7.53161 6.19812 7.53161 6.19812 7.5316C6.19812 7.5316 6.19812 7.5316 6.19812 7.53159C6.19812 7.53159 6.19812 7.53159 6.19812 7.53159C6.19812 7.53158 6.19812 7.53158 6.19812 7.53158C6.19812 7.53157 6.19812 7.53157 6.19812 7.53157C6.19812 7.53157 6.19812 7.53156 6.19812 7.53156C6.19812 7.53156 6.19812 7.53156 6.19812 7.53155C6.19812 7.53155 6.19812 7.53155 6.19812 7.53154C6.19812 7.53154 6.19812 7.53154 6.19812 7.53154C6.19812 7.53153 6.19812 7.53153 6.19812 7.53153C6.19812 7.53153 6.19812 7.53152 6.19812 7.53152C6.19812 7.53152 6.19812 7.53152 6.19812 7.53151C6.19812 7.53151 6.19812 7.53151 6.19812 7.53151C6.19812 7.5315 6.19812 7.5315 6.19812 7.5315C6.19812 7.5315 6.19812 7.53149 6.19812 7.53149C6.19812 7.53149 6.19812 7.53149 6.19812 7.53148C6.19812 7.53148 6.19812 7.53148 6.19812 7.53148C6.19812 7.53147 6.19812 7.53147 6.19812 7.53147C6.19812 7.53147 6.19812 7.53146 6.19812 7.53146C6.19812 7.53146 6.19812 7.53146 6.19812 7.53145C6.19812 7.53145 6.19812 7.53145 6.19812 7.53145C6.19812 7.53145 6.19812 7.53144 6.19812 7.53144C6.19812 7.53144 6.19812 7.53144 6.19812 7.53143C6.19812 7.53143 6.19812 7.53143 6.19812 7.53143C6.19812 7.53142 6.19812 7.53142 6.19812 7.53142C6.19812 7.53142 6.19812 7.53142 6.19812 7.53141C6.19812 7.53141 6.19812 7.53141 6.19812 7.53141C6.19812 7.5314 6.19812 7.5314 6.19812 7.5314C6.19812 7.5314 6.19812 7.5314 6.19812 7.53139C6.19812 7.53139 6.19812 7.53139 6.19812 7.53139C6.19812 7.53139 6.19812 7.53138 6.19812 7.53138C6.19812 7.53138 6.19812 7.53138 6.19812 7.53138C6.19812 7.53137 6.19812 7.53137 6.19812 7.53137C6.19812 7.53137 6.19812 7.53136 6.19812 7.53136C6.19812 7.53136 6.19812 7.53136 6.19812 7.53136C6.19812 7.53135 6.19812 7.53135 6.19812 7.53135C6.19812 7.53135 6.19812 7.53135 6.19812 7.53135C6.19812 7.53134 6.19812 7.53134 6.19812 7.53134C6.19812 7.53134 6.19812 7.53134 6.19812 7.53133C6.19812 7.53133 6.19812 7.53133 6.19812 7.53133C6.19812 7.53133 6.19812 7.53132 6.19812 7.53132C6.19812 7.53132 6.19812 7.53132 6.19812 7.53132C6.19812 7.53131 6.19812 7.53131 6.19812 7.53131C6.19812 7.53131 6.19812 7.53131 6.19812 7.53131C6.19812 7.5313 6.19812 7.5313 6.19812 7.5313C6.19812 7.5313 6.19812 7.5313 6.19812 7.5313C6.19812 7.53129 6.19812 7.53129 6.19812 7.53129C6.19812 7.53129 6.19812 7.53129 6.19812 7.53128C6.19812 7.53128 6.19812 7.53128 6.19812 7.53128C6.19812 7.53128 6.19812 7.53128 6.19812 7.53127C6.19812 7.53127 6.19812 7.53127 6.19812 7.53127C6.19812 7.53127 6.19812 7.53127 6.19812 7.53127C6.19812 7.53126 6.19812 7.53126 6.19812 7.53126C6.19812 7.53126 6.19812 7.53126 6.19812 7.53126C6.19812 7.53125 6.19812 7.53125 6.19812 7.53125C6.19812 7.53125 6.19812 7.53125 6.19812 7.53125C6.19812 7.53124 6.19812 7.53124 6.19812 7.53124C6.19812 7.53124 6.19812 7.53124 6.19812 7.53124C6.19812 7.53124 6.19812 7.53123 6.19812 7.53123C6.19812 7.53123 6.19812 7.53123 6.19812 7.53123C6.19812 7.53123 6.19812 7.53122 6.19812 7.53122C6.19812 7.53122 6.19812 7.53122 6.19812 7.53122C6.19812 7.53122 6.19812 7.53122 6.19812 7.53122C6.19812 7.53121 6.19812 7.53121 6.19812 7.53121C6.19812 7.53121 6.19812 7.53121 6.19812 7.53121C6.19812 7.53121 6.19812 7.5312 6.19812 7.5312C6.19812 7.5312 6.19812 7.5312 6.19812 7.5312C6.19812 7.5312 6.19812 7.5312 6.19812 7.53119C6.19812 7.53119 6.19812 7.53119 6.19812 7.53119C6.19812 7.53119 6.19812 7.53119 6.19812 7.53119C6.19812 7.53119 6.19812 7.53118 6.19812 7.53118C6.19812 7.53118 6.19812 7.53118 6.19812 7.53118C6.19812 7.53118 6.19812 7.53118 6.19812 7.53118C6.19812 7.53117 6.19812 7.53117 6.19812 7.53117C6.19812 7.53117 6.19812 7.53117 6.19812 7.53117C6.19812 7.53117 6.19812 7.53117 6.19812 7.53117C6.19812 7.53116 6.19812 7.53116 6.19812 7.53116C6.19812 7.53116 6.19812 7.53116 6.19812 7.53116C6.19812 7.53116 6.19812 7.53116 6.19812 7.53115C6.19812 7.53115 6.19812 7.53115 6.19812 7.53115C6.19812 7.53115 6.19812 7.53115 6.19812 7.53115C6.19812 7.53115 6.19812 7.53115 6.19812 7.53115C6.19812 7.53114 6.19812 7.53114 6.19812 7.53114C6.19812 7.53114 6.19812 7.53114 6.19812 7.53114C6.19812 7.53114 6.19812 7.53114 6.19812 7.53114C6.19812 7.53113 6.19812 7.53113 6.19812 7.53113C6.19812 7.53113 6.19812 7.53113 6.19812 7.53113C6.19812 7.53113 6.19812 7.53113 6.19812 7.53113C6.19812 7.53113 6.19812 7.53113 6.19812 7.53112C6.19812 7.53112 6.19812 7.53112 6.19812 7.53112C6.19812 7.53112 6.19812 7.53112 6.19812 7.53112C6.19812 7.53112 6.19812 7.53112 6.19812 7.53112C6.19812 7.53111 6.19812 7.53111 6.19812 7.53111C6.19812 7.53111 6.19812 7.53111 6.19812 7.53111C6.19812 7.53111 6.19812 7.53111 6.19812 7.53111C6.19812 7.53111 6.19812 7.53111 6.19812 7.53111C6.19812 7.5311 6.19812 7.5311 6.19812 7.5311C6.19812 7.5311 6.19812 7.5311 6.19812 7.5311C6.19812 7.5311 6.19812 7.5311 6.19812 7.5311C6.19812 7.5311 6.19812 7.5311 6.19812 7.5311C6.19812 7.53109 6.19812 7.53109 6.19812 7.53109C6.19812 7.53109 6.19812 7.53109 6.19812 7.53109C6.19812 7.53109 6.19812 7.53109 6.19812 7.53109C6.19812 7.53109 6.19812 7.53109 6.19812 7.53109C6.19812 7.53109 6.19812 7.53109 6.19812 7.53108C6.19812 7.53108 6.19812 7.53108 6.19812 7.53108C6.19812 7.53108 6.19812 7.53108 6.19812 7.53108C6.19812 7.53108 6.19812 7.53108 6.19812 7.53108C6.19812 7.53108 6.19812 7.53108 6.19812 7.53108C6.19812 7.53108 6.19812 7.53108 6.19812 7.53107C6.19812 7.53107 6.19812 7.53107 6.19812 7.53107C6.19812 7.53107 6.19812 7.53107 6.19812 7.53107C6.19812 7.53107 6.19812 7.53107 6.19812 7.53107C6.19812 7.53107 6.19812 7.53107 6.19812 7.53107C6.19812 7.53107 6.19812 7.53107 6.19812 7.53106C6.19812 7.53106 6.19812 7.53106 6.19812 7.53106C6.19812 7.53106 6.19812 7.53106 6.19812 7.53106C6.19812 7.53106 6.19812 7.53106 6.19812 7.53106C6.19812 7.53106 6.19812 7.53106 6.19812 7.53106C6.19812 7.53106 6.19812 7.53106 6.19812 7.53106C6.19812 7.53106 6.19812 7.53106 6.19812 7.53106C6.19812 7.53105 6.19812 7.53105 6.19812 7.53105C6.19812 7.53105 6.19812 7.53105 6.19812 7.53105C6.19812 7.53105 6.19812 7.53105 6.19812 7.53105C6.19812 7.53105 6.19812 7.53105 6.19812 7.53105C6.19812 7.53105 6.19812 7.53105 6.19812 7.53105C6.19812 7.53105 6.19812 7.53105 6.19812 7.53105C6.19812 7.53105 6.19812 7.53105 6.19812 7.53105C6.19812 7.53104 6.19812 7.53104 6.19812 7.53104C6.19812 7.53104 6.19812 7.53104 6.19812 7.53104C6.19812 7.53104 6.19812 7.53104 6.19812 7.53104C6.19812 7.53104 6.19812 7.53104 6.19812 7.53104C6.19812 7.53104 6.19812 7.53104 6.19812 7.53104C6.19812 7.53104 6.19812 7.53104 6.19812 7.53104C6.19812 7.53104 6.19812 7.53104 6.19812 7.53104C6.19812 7.53104 6.19812 7.53104 6.19812 7.53104C6.19812 7.53104 6.19812 7.53104 6.19812 7.53103C6.19812 7.53103 6.19812 7.53103 6.19812 7.53103C6.19812 7.53103 6.19812 7.53103 6.19812 7.53103C6.19812 7.53103 6.19812 7.53103 6.19812 7.53103C6.19812 7.53103 6.19812 7.53103 6.19812 7.53103C6.19812 7.53103 6.19812 7.53103 6.19812 7.53103C6.19812 7.53103 6.19812 7.53103 6.19812 7.53103C6.19812 7.53103 6.19812 7.53103 6.19812 7.53103C6.19812 7.53103 6.19812 7.53103 6.19812 7.53103C6.19812 7.53103 6.19812 7.53103 6.19812 7.53103C6.19812 7.53103 6.19812 7.53103 6.19812 7.53103C6.19812 7.53103 6.19812 7.53103 6.19812 7.53103C6.19812 7.53103 6.19812 7.53102 6.19812 7.53102C6.19812 7.53102 6.19812 7.53102 6.19812 7.53102C6.19812 7.53102 6.19812 7.53102 6.19812 7.53102C6.19812 7.53102 6.19812 7.53102 6.19812 7.53102C6.19812 7.53102 6.19812 7.53102 6.19812 7.53102C6.19812 7.53102 6.19812 7.53102 6.19812 7.53102C6.19812 7.53102 6.19812 7.53102 6.19812 7.53102C6.19812 7.53102 6.19812 7.53102 6.19812 7.53102C6.19812 7.53102 6.19812 7.53102 6.19812 7.53102C6.19812 7.53102 6.19812 7.53102 6.19812 7.53102C6.19812 7.53102 6.19812 7.53102 6.19812 7.53102C6.19812 7.53102 6.19812 7.53102 6.19812 7.53102C6.19812 7.53102 6.19812 7.53102 6.19812 7.53102C6.19812 7.53102 6.19812 7.53102 6.19812 7.53102C6.19812 7.53102 6.19812 7.53102 6.19812 7.53102C6.19812 7.53102 6.19812 7.53102 6.19812 7.53102V7.53102C6.19812 7.53102 6.19812 7.53102 6.19812 7.53102V7.53102C6.19812 7.53102 6.19812 7.53102 6.19812 7.53101V7.53101C6.19812 7.53101 6.19812 7.53101 6.19812 7.53101C6.19812 7.53101 6.19812 7.53101 6.19812 7.53101C6.19812 7.53101 6.19812 7.53101 6.19812 7.53101V7.53101V7.53101V7.53101V7.53101C6.19812 7.53101 6.19812 7.53101 6.19812 7.53101C6.19812 7.53101 6.19812 7.53101 6.19812 7.53101C6.19812 7.53101 6.19812 7.53101 6.19812 7.53101C6.19812 7.53101 6.19812 7.53101 6.19812 7.53101C6.19812 7.53101 6.19812 7.53101 6.19812 7.53101C6.19812 7.53101 6.19812 7.53101 6.19812 7.53101C6.19812 7.53101 6.19812 7.53101 6.19812 7.53101C6.19812 7.53101 6.19812 7.53101 6.19812 7.53101V7.53101C6.19812 7.53101 6.19812 7.53101 6.19812 7.53101C4.4124 7.53101 2.62669 7.53101 4.4124 7.53101ZM4.31224 5.75693C2.58978 5.8537 1.21429 7.28091 1.21429 9.03169H4.78571C4.78571 9.19352 4.66373 9.31425 4.51257 9.32274L4.31224 5.75693ZM1.21429 9.03169V9.20824H4.78571V9.03169H1.21429ZM1.21429 9.20824C1.21429 11.0243 2.68467 12.4946 4.50068 12.4946V8.92321C4.65711 8.92321 4.78571 9.05181 4.78571 9.20824H1.21429ZM4.50068 12.4946H4.58013V8.92321H4.50068V12.4946ZM3.0681 11.659L3.69486 12.6565L6.7189 10.7564L6.09215 9.75889L3.0681 11.659ZM3.6926 12.6529C4.46041 13.8814 5.78313 14.6132 7.22838 14.6132V11.0418C7.01407 11.0418 6.8361 10.9439 6.72116 10.76L3.6926 12.6529ZM7.22838 14.6132H7.35197V11.0418H7.22838V14.6132ZM5.62571 13.2845C5.8997 14.3195 6.84589 15.1429 8.03169 15.1429V11.5715C8.56425 11.5715 8.96314 11.9358 9.07823 12.3706L5.62571 13.2845ZM8.03169 15.1429C9.40632 15.1429 10.5236 14.0256 10.5236 12.651H6.95218C6.95218 12.0532 7.43388 11.5715 8.03169 11.5715V15.1429ZM10.5236 12.651C10.5236 11.2763 9.40632 10.1591 8.03169 10.1591V13.7305C7.43388 13.7305 6.95218 13.2488 6.95218 12.651H10.5236ZM8.03169 10.1591C6.84589 10.1591 5.8997 10.9824 5.62571 12.0175L9.07823 12.9314C8.96314 13.3662 8.56425 13.7305 8.03169 13.7305V10.1591ZM7.35197 10.6887H7.22838V14.2601H7.35197V10.6887ZM7.22838 10.6887C7.18263 10.6887 7.14502 10.6775 7.11406 10.6602C7.08292 10.6428 7.05197 10.6154 7.0263 10.5738L3.98774 12.4506C4.68164 13.5741 5.89901 14.2601 7.22838 14.2601V10.6887ZM7.01287 10.5524L6.50088 9.74914L3.48916 11.6687L4.00116 12.472L7.01287 10.5524ZM4.99502 12.4946H5.11861V8.92321H4.99502V12.4946ZM5.11861 12.4946C6.29903 12.4946 7.25742 11.5362 7.25742 10.3558H3.68599C3.68599 9.5638 4.32659 8.92321 5.11861 8.92321V12.4946ZM7.25742 10.3558V7.88411H3.68599V10.3558H7.25742ZM7.25742 7.88411C7.25742 6.70368 6.29903 5.7453 5.11861 5.7453V9.31672C4.32659 9.31672 3.68599 8.67613 3.68599 7.88411H7.25742ZM5.11861 5.7453H4.76551V9.31672H5.11861V5.7453ZM6.55122 7.53101C6.55122 6.76056 7.17296 6.13882 7.94341 6.13882V2.56739C5.20051 2.56739 2.97979 4.78811 2.97979 7.53101H6.55122ZM7.94341 6.13882C8.71387 6.13882 9.33561 6.76056 9.33561 7.53101H12.907C12.907 4.78811 10.6863 2.56739 7.94341 2.56739V6.13882ZM11.1213 5.7453H10.7682V9.31672H11.1213V5.7453ZM10.7682 5.7453C9.58779 5.7453 8.62941 6.70368 8.62941 7.88411H12.2008C12.2008 8.67613 11.5602 9.31672 10.7682 9.31672V5.7453ZM8.62941 7.88411V10.3558H12.2008V7.88411H8.62941ZM8.62941 10.3558C8.62941 11.5362 9.58779 12.4946 10.7682 12.4946V8.92321C11.5602 8.92321 12.2008 9.5638 12.2008 10.3558H8.62941ZM10.7682 12.4946H11.3861V8.92321H10.7682V12.4946ZM11.3861 12.4946C13.2022 12.4946 14.6725 11.0243 14.6725 9.20824H11.1011C11.1011 9.05181 11.2297 8.92321 11.3861 8.92321V12.4946ZM14.6725 9.20824V9.03169H11.1011V9.20824H14.6725ZM14.6725 9.03169C14.6725 7.28091 13.297 5.8537 11.5746 5.75693L11.3743 9.32274C11.2231 9.31425 11.1011 9.19352 11.1011 9.03169H14.6725ZM8.03169 14.0836C7.23967 14.0836 6.59908 13.443 6.59908 12.651H10.1705C10.1705 11.4705 9.21212 10.5122 8.03169 10.5122V14.0836ZM6.59908 12.651C6.59908 11.859 7.23967 11.2184 8.03169 11.2184V14.7898C9.21212 14.7898 10.1705 13.8314 10.1705 12.651H6.59908ZM8.03169 11.2184C8.82371 11.2184 9.4643 11.859 9.4643 12.651H5.89287C5.89287 13.8314 6.85126 14.7898 8.03169 14.7898V11.2184ZM9.4643 12.651C9.4643 13.443 8.82371 14.0836 8.03169 14.0836V10.5122C6.85126 10.5122 5.89287 11.4705 5.89287 12.651H9.4643ZM3.33289 7.88411V10.3558H6.90432V7.88411H3.33289ZM5.11861 8.5701H4.50068V12.1415H5.11861V8.5701ZM4.50068 8.5701C4.85132 8.5701 5.13882 8.8576 5.13882 9.20824H1.56739C1.56739 10.83 2.87887 12.1415 4.50068 12.1415V8.5701ZM5.13882 9.20824V9.03169H1.56739V9.20824H5.13882ZM5.13882 9.03169C5.13882 9.38233 4.85132 9.66983 4.50068 9.66983V6.0984C2.87887 6.0984 1.56739 7.40989 1.56739 9.03169H5.13882ZM4.50068 9.66983H5.11861V6.0984H4.50068V9.66983ZM10.748 9.20824C10.748 8.8576 11.0355 8.5701 11.3861 8.5701V12.1415C13.008 12.1415 14.3194 10.83 14.3194 9.20824H10.748ZM11.3861 8.5701H10.7682V12.1415H11.3861V8.5701ZM12.5539 10.3558V7.88411H8.98251V10.3558H12.5539ZM10.7682 9.66983H11.3861V6.0984H10.7682V9.66983ZM11.3861 9.66983C11.0355 9.66983 10.748 9.38233 10.748 9.03169H14.3194C14.3194 7.40989 13.008 6.0984 11.3861 6.0984V9.66983ZM10.748 9.03169V9.20824H14.3194V9.03169H10.748Z" fill="#FFB300" mask="url(#path-3-inside-2_2892_557)"/>
</g>
<path id="Vector_3" d="M9.25464 5.64109C9.27881 5.65343 9.30711 5.6596 9.32925 5.6596C9.39105 5.6596 9.44401 5.63312 9.47932 5.57132C9.48517 5.56079 9.48978 5.5498 9.49317 5.53852C9.51307 5.47231 9.4909 5.39643 9.43082 5.34835C9.42394 5.34284 9.41657 5.3377 9.4087 5.33298L9.25464 5.64109ZM9.25464 5.64109L9.3116 5.52719L9.32925 5.49188L9.33079 5.48881M9.25464 5.64109L9.33079 5.48881M9.33079 5.48881L9.32925 5.48795L9.3191 5.48231L9.32024 5.48042L9.32925 5.48557L9.3317 5.48697L9.33079 5.48881ZM9.02366 5.31818C8.98918 5.39744 9.00408 5.48187 9.07461 5.53398C9.07975 5.53778 9.08518 5.5414 9.09091 5.54484M9.02366 5.31818L9.16153 5.58898C9.15607 5.58534 9.15061 5.5817 9.14522 5.57813C9.13335 5.57027 9.12185 5.56279 9.11156 5.55651C9.10389 5.55184 9.09689 5.54783 9.09091 5.54484M9.02366 5.31818L9.16498 5.39669L9.16153 5.4036L9.09091 5.54484M9.02366 5.31818L9.1761 5.40286L9.09091 5.54484M9.16692 5.39281L9.02625 5.31243C9.02718 5.31045 9.02813 5.30847 9.02912 5.3065C9.06956 5.22562 9.16927 5.19661 9.2468 5.23305L9.17389 5.37888L9.16692 5.39281Z" fill="#FFB300" stroke="#FFB300" stroke-width="1.78571"/>
<g id="Vector_4">
<mask id="path-6-inside-3_2892_557" fill="white">
<path d="M7.94432 4.88275C7.19398 4.88275 6.48777 5.20937 6.00226 5.77433C5.94047 5.84495 5.9493 5.95971 6.01992 6.0215C6.05523 6.04798 6.09054 6.06564 6.13467 6.06564C6.18764 6.06564 6.23178 6.04798 6.26709 6.00385C6.69081 5.51833 7.29991 5.23585 7.94432 5.23585C8.10321 5.23585 8.26211 5.25351 8.421 5.28882C8.51811 5.30647 8.60638 5.24468 8.63286 5.1564C8.65935 5.06813 8.58873 4.97103 8.50045 4.94454C8.31507 4.90041 8.12969 4.88275 7.94432 4.88275Z"/>
</mask>
<path d="M7.94432 4.88275C7.19398 4.88275 6.48777 5.20937 6.00226 5.77433C5.94047 5.84495 5.9493 5.95971 6.01992 6.0215C6.05523 6.04798 6.09054 6.06564 6.13467 6.06564C6.18764 6.06564 6.23178 6.04798 6.26709 6.00385C6.69081 5.51833 7.29991 5.23585 7.94432 5.23585C8.10321 5.23585 8.26211 5.25351 8.421 5.28882C8.51811 5.30647 8.60638 5.24468 8.63286 5.1564C8.65935 5.06813 8.58873 4.97103 8.50045 4.94454C8.31507 4.90041 8.12969 4.88275 7.94432 4.88275Z" fill="#FFB300"/>
<path d="M6.00226 5.77433L7.34615 6.95023L7.35139 6.94424L7.35658 6.9382L6.00226 5.77433ZM6.01992 6.0215L4.84401 7.36539L4.89465 7.4097L4.94849 7.45007L6.01992 6.0215ZM6.26709 6.00385L4.92168 4.82968L4.89655 4.85848L4.87268 4.88832L6.26709 6.00385ZM8.421 5.28882L8.03363 7.03201L8.06746 7.03953L8.10156 7.04573L8.421 5.28882ZM8.50045 4.94454L9.01357 3.23414L8.9642 3.21933L8.91406 3.20739L8.50045 4.94454ZM7.94432 3.09704C6.67166 3.09704 5.4715 3.65213 4.64794 4.61046L7.35658 6.9382C7.50404 6.76661 7.71629 6.66847 7.94432 6.66847V3.09704ZM4.65837 4.59843C3.93284 5.42761 4.04764 6.66856 4.84401 7.36539L7.19582 4.67762C7.85095 5.25086 7.94809 6.2623 7.34615 6.95023L4.65837 4.59843ZM4.94849 7.45007C5.14048 7.59407 5.54933 7.85135 6.13467 7.85135V4.27993C6.63175 4.27993 6.96997 4.5019 7.09134 4.59293L4.94849 7.45007ZM6.13467 7.85135C6.66187 7.85135 7.24685 7.63768 7.66149 7.11937L4.87268 4.88832C5.01589 4.7093 5.21645 4.53908 5.47471 4.42286C5.72657 4.30953 5.96107 4.27993 6.13467 4.27993V7.85135ZM7.61249 7.17802C7.70412 7.07302 7.82623 7.02157 7.94432 7.02157V3.45014C6.77359 3.45014 5.6775 3.96364 4.92168 4.82968L7.61249 7.17802ZM7.94432 7.02157C7.96977 7.02157 7.99881 7.02427 8.03363 7.03201L8.80838 3.54563C8.52541 3.48274 8.23665 3.45014 7.94432 3.45014V7.02157ZM8.10156 7.04573C9.16938 7.23988 10.0784 6.55255 10.3433 5.66953L6.92246 4.64328C7.1344 3.93681 7.86683 3.37307 8.74044 3.53191L8.10156 7.04573ZM10.3433 5.66953C10.5423 5.0061 10.3452 4.41668 10.102 4.04663C9.86212 3.68156 9.48675 3.37609 9.01357 3.23414L7.98733 6.65495C7.60243 6.53948 7.3065 6.2958 7.11736 6.00798C6.92494 5.71517 6.74991 5.21844 6.92246 4.64328L10.3433 5.66953ZM8.91406 3.20739C8.57056 3.1256 8.24364 3.09704 7.94432 3.09704V6.66847C8.01575 6.66847 8.05959 6.67521 8.08684 6.6817L8.91406 3.20739Z" fill="#FFB300" mask="url(#path-6-inside-3_2892_557)"/>
</g>
</g>
</g>
</g>
<path id="Ellipse 526" d="M9.8 16C9.8 16.1596 9.66544 16.3579 9.32477 16.5282C8.99607 16.6926 8.52797 16.8 8 16.8C7.47203 16.8 7.00393 16.6926 6.67523 16.5282C6.33456 16.3579 6.2 16.1596 6.2 16C6.2 15.8404 6.33456 15.6421 6.67523 15.4718C7.00393 15.3074 7.47203 15.2 8 15.2C8.52797 15.2 8.99607 15.3074 9.32477 15.4718C9.66544 15.6421 9.8 15.8404 9.8 16Z" stroke="#FFB300" stroke-width="0.4"/>
</g>
</svg>
