<svg width="202" height="30" viewBox="0 0 202 30" fill="none" xmlns="http://www.w3.org/2000/svg">
<path d="M119.56 23.3231C119.626 24.3993 119.904 25.2732 120.394 25.9448C121.326 27.2018 122.969 27.8303 125.323 27.8303C126.378 27.8303 127.339 27.6926 128.205 27.417C129.881 26.8832 130.719 25.9275 130.719 24.55C130.719 23.5168 130.366 22.7806 129.66 22.3415C128.944 21.911 127.824 21.5365 126.298 21.2179L123.487 20.6368C121.651 20.2579 120.351 19.8404 119.589 19.384C118.27 18.5919 117.611 17.4081 117.611 15.8325C117.611 14.1277 118.256 12.7286 119.546 11.6352C120.836 10.5417 122.663 9.995 125.027 9.995C127.202 9.995 129.048 10.4771 130.564 11.4415C132.09 12.3971 132.852 13.9297 132.852 16.0391H130.211C130.07 15.0232 129.768 14.244 129.307 13.7015C128.45 12.7114 126.995 12.2163 124.942 12.2163C123.285 12.2163 122.093 12.5349 121.368 13.172C120.643 13.8092 120.281 14.5496 120.281 15.3934C120.281 16.3232 120.704 17.0034 121.552 17.4339C122.108 17.7094 123.365 18.0538 125.323 18.4671L128.233 19.0741C129.637 19.3668 130.719 19.7672 131.482 20.2752C132.801 21.162 133.46 22.4492 133.46 24.1367C133.46 26.2375 132.622 27.7399 130.945 28.644C129.279 29.548 127.339 30 125.126 30C122.545 30 120.526 29.3973 119.066 28.1919C117.606 26.9952 116.891 25.3722 116.919 23.3231H119.56Z" fill="#FFB300"/>
<path d="M137.189 11.7514H139.76V15.6129H142.175V17.5114H139.76V26.5388C139.76 27.021 139.939 27.3439 140.297 27.5075C140.494 27.6022 140.824 27.6495 141.285 27.6495C141.408 27.6495 141.54 27.6495 141.681 27.6495C141.822 27.6409 141.987 27.628 142.175 27.6108V29.4447C141.883 29.5222 141.577 29.5781 141.257 29.6126C140.946 29.647 140.607 29.6642 140.24 29.6642C139.054 29.6642 138.248 29.3887 137.825 28.8377C137.401 28.278 137.189 27.5548 137.189 26.668V17.5114H135.141V15.6129H137.189V11.7514Z" fill="#FFB300"/>
<path d="M150.735 27.9466C152.421 27.9466 153.575 27.3654 154.196 26.2031C154.827 25.0321 155.143 23.732 155.143 22.3028C155.143 21.0113 154.917 19.9609 154.465 19.1516C153.749 17.8773 152.515 17.2402 150.764 17.2402C149.21 17.2402 148.08 17.7826 147.374 18.8675C146.667 19.9523 146.314 21.261 146.314 22.7936C146.314 24.2658 146.667 25.4927 147.374 26.4743C148.08 27.4558 149.2 27.9466 150.735 27.9466ZM150.834 15.2126C152.784 15.2126 154.432 15.8067 155.778 16.9948C157.125 18.183 157.798 19.9308 157.798 22.2382C157.798 24.4682 157.205 26.3107 156.018 27.7657C154.832 29.2208 152.991 29.9483 150.495 29.9483C148.414 29.9483 146.761 29.3069 145.537 28.024C144.313 26.7326 143.701 25.002 143.701 22.8323C143.701 20.5076 144.346 18.6565 145.636 17.2789C146.926 15.9014 148.659 15.2126 150.834 15.2126Z" fill="#FFB300"/>
<path d="M166.669 15.2126C168.374 15.2126 169.758 15.5914 170.822 16.3491C171.896 17.1067 172.541 18.4111 172.757 20.2623H170.285C170.135 19.4099 169.791 18.7039 169.254 18.1442C168.717 17.576 167.856 17.2919 166.669 17.2919C165.049 17.2919 163.891 18.0151 163.194 19.4615C162.742 20.4 162.516 21.558 162.516 22.9356C162.516 24.3218 162.836 25.4884 163.477 26.4355C164.117 27.3826 165.125 27.8561 166.5 27.8561C167.554 27.8561 168.388 27.5634 169 26.9779C169.621 26.3839 170.05 25.5745 170.285 24.55H172.757C172.475 26.3839 171.768 27.727 170.638 28.5794C169.508 29.4231 168.063 29.845 166.302 29.845C164.324 29.845 162.747 29.1864 161.57 27.8691C160.393 26.5431 159.804 24.8901 159.804 22.9098C159.804 20.4818 160.449 18.5919 161.739 17.2402C163.029 15.8884 164.673 15.2126 166.669 15.2126Z" fill="#FFB300"/>
<path d="M175.243 10.4728H177.687V21.4892L184.213 15.6129H187.462L181.67 20.7918L187.787 29.4447H184.538L179.82 22.4707L177.687 24.2529V29.4447H175.243V10.4728Z" fill="#FFB300"/>
<path d="M191.276 25.1053C191.351 25.8802 191.563 26.4743 191.911 26.8875C192.552 27.6366 193.663 28.0111 195.245 28.0111C196.187 28.0111 197.016 27.826 197.731 27.4558C198.447 27.077 198.805 26.4958 198.805 25.7123C198.805 25.1182 198.518 24.6662 197.943 24.3562C197.576 24.1668 196.851 23.9473 195.768 23.6976L193.748 23.2327C192.458 22.9399 191.507 22.6127 190.894 22.2511C189.802 21.6226 189.256 20.753 189.256 19.6423C189.256 18.3336 189.769 17.2746 190.796 16.4653C191.831 15.656 193.22 15.2513 194.963 15.2513C197.242 15.2513 198.885 15.8626 199.892 17.0852C200.523 17.8601 200.829 18.6953 200.811 19.5907H198.409C198.362 19.0655 198.16 18.5876 197.802 18.1571C197.218 17.5458 196.206 17.2402 194.765 17.2402C193.804 17.2402 193.074 17.4081 192.575 17.7439C192.086 18.0797 191.841 18.5231 191.841 19.0741C191.841 19.6768 192.166 20.1589 192.816 20.5205C193.192 20.7358 193.748 20.9252 194.482 21.0888L196.163 21.4633C197.99 21.868 199.214 22.2597 199.836 22.6386C200.825 23.2327 201.319 24.1668 201.319 25.4411C201.319 26.6723 200.806 27.7356 199.779 28.631C198.762 29.5265 197.209 29.9742 195.118 29.9742C192.867 29.9742 191.271 29.5092 190.329 28.5794C189.397 27.6409 188.898 26.4829 188.832 25.1053H191.276Z" fill="#FFB300"/>
<path d="M4.82997 28.3692C3.30844 27.5182 2.11864 26.3154 1.27384 24.7566C0.424613 23.2019 0 21.414 0 19.3929C0 17.3717 0.424613 15.5838 1.27384 14.025C2.12306 12.4703 3.30844 11.2675 4.82997 10.4165C6.35592 9.56551 8.09418 9.14001 10.0492 9.14001C11.4026 9.14001 12.6588 9.34867 13.822 9.7578C14.9853 10.171 15.9716 10.7479 16.7766 11.4925V0H23.5483V29.2448H17.4666L17.3826 26.6099C16.5776 27.5673 15.5426 28.3119 14.2776 28.8438C13.0126 29.3757 11.6061 29.6416 10.0492 29.6416C8.09418 29.6416 6.35592 29.2161 4.82997 28.3651V28.3692ZM8.12956 22.9809C9.06283 23.9138 10.2792 24.3761 11.7742 24.3761C13.2691 24.3761 14.4899 23.9179 15.4409 23.0014C16.3874 22.0849 16.8651 20.8821 16.8651 19.3888C16.8651 17.8954 16.3918 16.6967 15.4409 15.7802C14.4899 14.8638 13.2691 14.4055 11.7742 14.4055C10.2792 14.4055 9.06283 14.8719 8.12956 15.8007C7.19188 16.7335 6.72746 17.9282 6.72746 19.3929C6.72746 20.8576 7.19188 22.0522 8.12956 22.985" fill="#FFB300"/>
<path d="M27.3872 0H34.1589V11.693C35.7999 9.96236 37.9672 9.0991 40.6697 9.0991C43.3721 9.0991 45.3625 9.90918 46.9017 11.5334C48.441 13.1577 49.2106 15.3506 49.2106 18.1164V29.2488H42.4389V18.4764C42.4389 17.1999 42.1027 16.2016 41.426 15.4856C40.7493 14.7697 39.8072 14.4096 38.5997 14.4096C37.2772 14.4096 36.2068 14.8229 35.3841 15.6452C34.5658 16.4717 34.1545 17.5477 34.1545 18.8773V29.2488H27.3828V0H27.3872Z" fill="#FFB300"/>
<path d="M56.4778 28.3486C54.9386 27.4854 53.74 26.2743 52.8775 24.7196C52.015 23.1649 51.5859 21.3893 51.5859 19.3927C51.5859 17.3962 52.015 15.6246 52.8775 14.0658C53.74 12.5111 54.9386 11.3001 56.4778 10.4368C58.0171 9.57357 59.7774 9.13989 61.7634 9.13989C63.2009 9.13989 64.5234 9.3731 65.7308 9.83951C66.9383 10.3059 68.3537 11.3287 69.2162 12.2043L69.2649 9.53675H75.1298V29.2446H69.2649L69.3135 26.8921C67.5001 28.7291 64.6605 29.6456 61.759 29.6456C59.773 29.6456 58.0126 29.2119 56.4734 28.3486H56.4778ZM59.7067 22.9808C60.6399 23.9136 61.8563 24.376 63.3512 24.376C64.8462 24.376 66.067 23.9177 67.018 23.0013C67.9645 22.0848 68.4422 20.882 68.4422 19.3886C68.4422 17.8953 67.9689 16.6966 67.018 15.7801C66.067 14.8636 64.8462 14.4054 63.3512 14.4054C61.8563 14.4054 60.6399 14.8718 59.7067 15.8006C58.7734 16.7334 58.3046 17.928 58.3046 19.3927C58.3046 20.8574 58.7734 22.0521 59.7067 22.9849" fill="#FFB300"/>
<path d="M78.9693 8.69434H85.2279L85.2633 11.8528C86.0992 10.9732 87.0944 10.2981 88.2621 9.81536C89.4254 9.33667 90.7125 9.09938 92.1234 9.09938C94.7684 9.09938 96.8738 9.89718 98.4395 11.4928C100.005 13.0884 100.793 15.2977 100.793 18.1126V29.245H94.0209V18.4726C94.0209 17.1961 93.6759 16.1978 92.9859 15.4818C92.2959 14.7659 91.345 14.4058 90.1375 14.4058C88.815 14.4058 87.749 14.819 86.944 15.6414C86.139 16.4678 85.7365 17.5439 85.7365 18.8735V29.245H78.9648V8.69434H78.9693Z" fill="#FFB300"/>
<path d="M104.96 0.990099C105.734 0.331397 106.711 0 107.901 0C109.091 0 110.068 0.327306 110.842 0.990099C111.612 1.6488 112.001 2.50389 112.001 3.54717C112.001 4.59046 111.621 5.40054 110.864 6.06333C110.108 6.72204 109.117 7.04934 107.901 7.04934C106.685 7.04934 105.694 6.72204 104.938 6.06333C104.181 5.40463 103.801 4.56591 103.801 3.54717C103.801 2.52844 104.186 1.65289 104.96 0.990099Z" fill="#FFB300"/>
<path d="M111.143 8.18713H104.371V29.2492H111.143V8.18713Z" fill="#FFB300"/>
</svg>
