<svg width="102" height="22" viewBox="0 0 102 22" fill="none" xmlns="http://www.w3.org/2000/svg">
<path d="M2.92622 17.0678C2.00441 16.5558 1.28357 15.8322 0.77175 14.8943C0.25725 13.959 0 12.8833 0 11.6674C0 10.4514 0.25725 9.37573 0.77175 8.43791C1.28625 7.50255 2.00441 6.77888 2.92622 6.26689C3.85071 5.75491 4.90383 5.49892 6.08825 5.49892C6.90823 5.49892 7.66927 5.62445 8.37402 5.8706C9.07878 6.11921 9.67635 6.46627 10.1641 6.91426V0H14.2667V17.5946H10.5821L10.5312 16.0094C10.0435 16.5854 9.41642 17.0333 8.65003 17.3533C7.88364 17.6733 7.0315 17.8333 6.08825 17.8333C4.90383 17.8333 3.85071 17.5773 2.92622 17.0653V17.0678ZM4.92527 13.8261C5.49068 14.3873 6.22759 14.6654 7.13333 14.6654C8.03906 14.6654 8.77866 14.3897 9.35479 13.8384C9.92824 13.287 10.2176 12.5633 10.2176 11.6649C10.2176 10.7665 9.93092 10.0452 9.35479 9.49388C8.77866 8.94251 8.03906 8.66682 7.13333 8.66682C6.22759 8.66682 5.49068 8.94743 4.92527 9.50618C4.35717 10.0674 4.0758 10.7861 4.0758 11.6674C4.0758 12.5486 4.35717 13.2673 4.92527 13.8285" fill="#FFB300"/>
<path d="M16.9461 0H21.0954V7.12934C22.1009 6.07416 23.4289 5.54781 25.0849 5.54781C26.7408 5.54781 27.9605 6.04173 28.9036 7.03205C29.8468 8.02238 30.3184 9.35944 30.3184 11.0457V17.8333H26.169V11.2653C26.169 10.487 25.963 9.8783 25.5483 9.44176C25.1337 9.00522 24.5564 8.7857 23.8165 8.7857C23.0061 8.7857 22.3503 9.03765 21.8462 9.53905C21.3448 10.0429 21.0927 10.699 21.0927 11.5097V17.8333H16.9434V0H16.9461Z" fill="#FFB300"/>
<path d="M35.0639 17.0436C34.1312 16.5181 33.4049 15.7809 32.8822 14.8344C32.3596 13.8879 32.0996 12.807 32.0996 11.5915C32.0996 10.3761 32.3596 9.29759 32.8822 8.34864C33.4049 7.40218 34.1312 6.66494 35.0639 6.1394C35.9966 5.61387 37.0633 5.34985 38.2667 5.34985C39.1378 5.34985 39.9392 5.49182 40.6709 5.77576C41.4026 6.0597 42.2602 6.68237 42.7829 7.21538L42.8123 5.59145H46.3663V17.5891H42.8123L42.8418 16.1569C41.7429 17.2753 40.0223 17.8332 38.2641 17.8332C37.0606 17.8332 35.9939 17.5692 35.0612 17.0436H35.0639ZM37.0204 13.7758C37.586 14.3437 38.323 14.6252 39.2289 14.6252C40.1348 14.6252 40.8746 14.3462 41.4508 13.7883C42.0244 13.2304 42.3138 12.4981 42.3138 11.589C42.3138 10.6799 42.027 9.95015 41.4508 9.39224C40.8746 8.83433 40.1348 8.55537 39.2289 8.55537C38.323 8.55537 37.586 8.83931 37.0204 9.40469C36.4549 9.97257 36.1708 10.6999 36.1708 11.5915C36.1708 12.4832 36.4549 13.2105 37.0204 13.7783" fill="#FFB300"/>
<path d="M49.0457 5.34985H52.8807L52.9023 7.26845C53.4146 6.73413 54.0244 6.32406 54.7399 6.03081C55.4527 5.74004 56.2413 5.59589 57.1059 5.59589C58.7266 5.59589 60.0167 6.08051 60.9761 7.04975C61.9355 8.01899 62.418 9.36102 62.418 11.0709V17.8332H58.2686V11.2896C58.2686 10.5142 58.0572 9.90777 57.6344 9.47286C57.2116 9.03794 56.6289 8.81924 55.889 8.81924C55.0787 8.81924 54.4255 9.07025 53.9322 9.56978C53.439 10.0718 53.1923 10.7254 53.1923 11.5331V17.8332H49.043V5.34985H49.0457Z" fill="#FFB300"/>
<path d="M64.9553 0.626185C65.4603 0.209591 66.098 0 66.8742 0C67.6505 0 68.2882 0.207003 68.7932 0.626185C69.2953 1.04278 69.5492 1.58357 69.5492 2.2434C69.5492 2.90322 69.301 3.41555 68.8076 3.83473C68.3142 4.25133 67.6678 4.45833 66.8742 4.45833C66.0807 4.45833 65.4343 4.25133 64.9408 3.83473C64.4474 3.41814 64.1992 2.88769 64.1992 2.2434C64.1992 1.5991 64.4503 1.04537 64.9553 0.626185Z" fill="#FFB300"/>
<path d="M68.6575 5.34985H64.1992V17.8332H68.6575V5.34985Z" fill="#FFB300"/>
<path d="M99.9992 9.47119H101.65C101.44 10.0409 100.973 11.3408 100.248 13.3709C99.7061 14.8976 99.2525 16.1422 98.8874 17.1047C98.0245 19.3726 97.416 20.7555 97.062 21.2533C96.708 21.7512 96.0995 22.0001 95.2366 22.0001C95.0264 22.0001 94.8632 21.9918 94.747 21.9752C94.6364 21.9586 94.4981 21.9282 94.3322 21.8839V20.5232C94.5922 20.5951 94.7802 20.6393 94.8964 20.6559C95.0126 20.6725 95.1149 20.6808 95.2034 20.6808C95.48 20.6808 95.6819 20.6338 95.8091 20.5398C95.9419 20.4513 96.0525 20.3406 96.141 20.2079C96.1686 20.1636 96.2682 19.9368 96.4397 19.5275C96.6112 19.1182 96.7356 18.8139 96.8131 18.6148L93.5273 9.47119H95.22L97.6013 16.7064L99.9992 9.47119Z" fill="#FFB300"/>
<path d="M85.9642 15.9928C85.9642 16.4242 86.1218 16.7644 86.4371 17.0133C86.7524 17.2623 87.1258 17.3867 87.5573 17.3867C88.0828 17.3867 88.5917 17.265 89.084 17.0216C89.9137 16.6178 90.3286 15.9568 90.3286 15.0386V13.8355C90.146 13.9516 89.9109 14.0484 89.6233 14.1259C89.3357 14.2033 89.0535 14.2586 88.777 14.2918L87.8726 14.408C87.3305 14.4799 86.9239 14.5933 86.6529 14.7482C86.1937 15.0082 85.9642 15.423 85.9642 15.9928ZM89.5818 12.9726C89.9248 12.9283 90.1543 12.7845 90.2705 12.5411C90.3369 12.4083 90.3701 12.2175 90.3701 11.9686C90.3701 11.4597 90.1875 11.0918 89.8224 10.865C89.4629 10.6327 88.9457 10.5166 88.2708 10.5166C87.4909 10.5166 86.9377 10.7268 86.6114 11.1472C86.4288 11.3795 86.3099 11.7252 86.2546 12.1843H84.8606C84.8883 11.0891 85.2423 10.3285 85.9227 9.90256C86.6086 9.4711 87.4024 9.25537 88.304 9.25537C89.3495 9.25537 90.1986 9.45451 90.8513 9.85278C91.4985 10.251 91.8221 10.8706 91.8221 11.7114V16.8308C91.8221 16.9857 91.8525 17.1101 91.9133 17.2042C91.9797 17.2982 92.1152 17.3452 92.3199 17.3452C92.3863 17.3452 92.461 17.3425 92.5439 17.3369C92.6269 17.3259 92.7154 17.312 92.8095 17.2954V18.399C92.5771 18.4654 92.4001 18.5069 92.2784 18.5234C92.1567 18.54 91.9908 18.5483 91.7806 18.5483C91.2662 18.5483 90.8928 18.3658 90.6605 18.0007C90.5388 17.8071 90.453 17.5333 90.4032 17.1793C90.099 17.5776 89.662 17.9233 89.0923 18.2164C88.5225 18.5096 87.8947 18.6562 87.2088 18.6562C86.3846 18.6562 85.7097 18.4073 85.1842 17.9094C84.6643 17.4061 84.4043 16.7783 84.4043 16.026C84.4043 15.2018 84.6615 14.5629 85.1759 14.1093C85.6904 13.6557 86.3652 13.3764 87.2005 13.2713L89.5818 12.9726Z" fill="#FFB300"/>
<path d="M73.6719 6.1687H79.1564C80.2406 6.1687 81.1145 6.4757 81.7783 7.0897C82.4421 7.69817 82.774 8.55556 82.774 9.66186C82.774 10.6133 82.4781 11.443 81.8862 12.1511C81.2943 12.8536 80.3844 13.2048 79.1564 13.2048H75.323V18.3574H73.6719V6.1687ZM81.1063 9.67016C81.1063 8.77405 80.7744 8.16558 80.1106 7.84475C79.7455 7.67328 79.2449 7.58754 78.6088 7.58754H75.323V11.8109H78.6088C79.35 11.8109 79.9502 11.6532 80.4093 11.3379C80.8739 11.0226 81.1063 10.4667 81.1063 9.67016Z" fill="#FFB300"/>
</svg>
