<svg width="32" height="32" viewBox="0 0 32 32" fill="none" xmlns="http://www.w3.org/2000/svg">
<g clip-path="url(#clip0_255_6301)">
<path d="M16 0C7.16344 0 0 7.16344 0 16C0 24.8366 7.16344 32 16 32C24.8366 32 32 24.8366 32 16C32 7.16344 24.8366 0 16 0ZM16.3079 13.5869C16.3131 13.5872 16.3181 13.5883 16.3235 13.5885C16.2688 13.354 16.2405 13.1095 16.2405 12.8584C16.2405 11.0892 17.6749 9.65475 19.4444 9.65475C20.3657 9.65475 21.1983 10.0438 21.7827 10.6665C22.3827 10.5484 22.9505 10.3431 23.4783 10.0713C23.5896 10.0173 23.7012 9.96362 23.8108 9.90419C23.6209 10.4876 23.2643 10.9924 22.802 11.3749C22.6768 11.4734 22.5481 11.5686 22.4066 11.6464C22.4163 11.6453 22.4256 11.6432 22.4352 11.642C22.4258 11.6478 22.418 11.6558 22.4084 11.6615C22.9336 11.5987 23.4371 11.4708 23.9154 11.2901C24.0226 11.2531 24.1296 11.2157 24.2358 11.1744C23.8082 11.8093 23.27 12.3678 22.6499 12.8156C22.656 12.9529 22.6591 13.0909 22.6591 13.23C22.6591 17.4635 19.4368 22.3451 13.5439 22.3451C11.7347 22.3451 10.0507 21.8149 8.63288 20.9059C8.8835 20.9354 9.13863 20.9506 9.39719 20.9506C10.5932 20.9506 11.7106 20.6213 12.6711 20.0543C12.9131 19.9149 13.1497 19.7644 13.3757 19.594C13.3696 19.5939 13.364 19.5924 13.3579 19.5923C13.3637 19.5877 13.3701 19.5837 13.3759 19.5792C12.1621 19.5568 11.1144 18.858 10.5901 17.845C10.5119 17.6894 10.4451 17.5265 10.3923 17.3556C10.5852 17.3918 10.7827 17.4117 10.9861 17.4117C11.198 17.4117 11.4027 17.3844 11.603 17.3452C11.6778 17.3347 11.7534 17.326 11.8271 17.3139C11.8174 17.3119 11.8088 17.3076 11.7991 17.3056C11.8092 17.3029 11.8201 17.3021 11.8301 17.2993C10.3645 17.005 9.26013 15.7101 9.26013 14.1579C9.26013 14.1457 9.26025 14.1337 9.26038 14.1217L9.26188 14.1182C9.60694 14.3097 9.99269 14.4365 10.4012 14.4895C10.5018 14.5063 10.6026 14.5217 10.7032 14.5306C10.6964 14.5259 10.6904 14.5203 10.6836 14.5157C10.6931 14.5161 10.7022 14.5179 10.7116 14.5183C9.85194 13.9438 9.28638 12.9631 9.28638 11.8516C9.28638 11.3428 9.41063 10.8649 9.62181 10.4377C9.6555 10.3734 9.68544 10.3078 9.72412 10.2456C11.1436 11.9844 13.1939 13.1812 15.5242 13.5049C15.7842 13.5427 16.0449 13.5764 16.3088 13.5917C16.3084 13.5902 16.3083 13.5885 16.3079 13.5869Z" fill="white"/>
</g>
<defs>
<clipPath id="clip0_255_6301">
<rect width="32" height="32" fill="white"/>
</clipPath>
</defs>
</svg>
